<?xml version="1.0" encoding="UTF-8" standalone="no"?>
<!-- Created with Inkscape (http://www.inkscape.org/) -->

<svg
   width="255.99948"
   height="237.74699"
   viewBox="0 0 67.733193 62.903894"
   version="1.1"
   id="svg1"
   xml:space="preserve"
   inkscape:version="1.3.2 (091e20e, 2023-11-25, custom)"
   sodipodi:docname="sebastian-headshot.svg"
   xmlns:inkscape="http://www.inkscape.org/namespaces/inkscape"
   xmlns:sodipodi="http://sodipodi.sourceforge.net/DTD/sodipodi-0.dtd"
   xmlns="http://www.w3.org/2000/svg"
   xmlns:svg="http://www.w3.org/2000/svg"><sodipodi:namedview
     id="namedview1"
     pagecolor="#505050"
     bordercolor="#eeeeee"
     borderopacity="1"
     inkscape:showpageshadow="0"
     inkscape:pageopacity="0"
     inkscape:pagecheckerboard="0"
     inkscape:deskcolor="#505050"
     inkscape:document-units="mm"
     inkscape:zoom="1.0343421"
     inkscape:cx="165.80588"
     inkscape:cy="256.68491"
     inkscape:window-width="1920"
     inkscape:window-height="1017"
     inkscape:window-x="-8"
     inkscape:window-y="-8"
     inkscape:window-maximized="1"
     inkscape:current-layer="layer1" /><defs
     id="defs1" /><g
     inkscape:label="Layer 1"
     inkscape:groupmode="layer"
     id="layer1"><path
       id="level-3"
       fill="none"
       stroke="#000000"
       stroke-width="3.1918"
       d="m 0.08235793,62.763123 c 0,0 0.78658053,-4.015995 0.78658053,-4.015995 0,0 0.20634014,-2.077245 0.20634014,-2.077245 0,0 0.4085235,-1.384824 0.4085235,-1.384824 0.6245559,-2.3279 1.2491142,-4.36913 3.4454495,-5.687486 1.2380332,-0.743652 1.9096757,-0.772731 3.1851002,-1.110627 0,0 1.3848274,-0.440375 1.3848274,-0.440375 0,0 2.3542048,-0.576091 2.3542048,-0.576091 0,0 5.91598,-1.930447 5.91598,-1.930447 0,0 1.146636,-0.150953 1.146636,-0.150953 0,0 2.215723,-0.537315 2.215723,-0.537315 0.474995,-0.102468 1.258807,-0.177252 1.661792,-0.390519 0.66887,-0.3559 1.015078,-1.05662 1.465147,-1.62717 0.487458,-0.617634 0.883518,-0.864131 1.23111,-1.674254 0.689644,-1.609172 -0.854437,-2.194954 -1.602244,-3.362361 0,0 -0.565009,-1.069084 -0.565009,-1.069084 0,0 -0.895985,-1.523313 -0.895985,-1.523313 0,0 -1.955374,-5.677786 -1.955374,-5.677786 0,0 -1.07324,-5.677789 -1.07324,-5.677789 0,0 -0.423758,-1.52331 -0.423758,-1.52331 0,0 -0.373903,-2.07724 -0.373903,-2.07724 0,0 -0.474996,-2.215723 -0.474996,-2.215723 0,0 -0.329589,-3.877514 -0.329589,-3.877514 -0.06093,-0.826741 -0.300507,-1.022002 -0.258962,-2.077241 0,0 0.423758,-2.6311708 0.423758,-2.6311708 -0.0014,-0.5733175 -0.426527,-0.685488 -0.293584,-1.384826 0.145406,-0.7588845 0.833666,-1.293428 0.747806,-1.9387579 -0.07202,-0.547007 -1.11617,-1.4776096 -0.607938,-2.1132454 0.204955,-0.2561934 0.671641,-0.2243414 0.970763,-0.2949675 0.250654,-0.059553 1.370978,-0.548392 1.603629,-0.6896439 1.881981,-1.1480215 0.949991,-1.0067695 3.381746,-1.8307417 0,0 0.969379,-0.38221125 0.969379,-0.38221125 0.595477,-0.15371545 0.702108,0.0927887 1.523311,-0.0927887 0,0 1.523309,-0.46391714 1.523309,-0.46391714 0.258963,-0.070626 1.948451,-0.21326335 2.215722,-0.18418208 0.985997,0.10940647 1.202029,0.46945682 1.938758,0.76026997 0,0 2.215722,0.6162473 2.215722,0.6162473 1.36821,0.2464989 1.005386,0.2160341 2.215724,0.571933 0,0 0.67995,0.1661807 0.67995,0.1661807 0,0 0.987381,0.5996295 0.987381,0.5996295 0,0 1.240804,0.4819203 1.240804,0.4819203 0.474997,0.2284958 1.949836,1.2795792 2.32928,1.6507123 0.598244,0.5830121 0.915369,1.3626696 1.395904,2.030155 0,0 1.091244,1.253269 1.091244,1.253269 0.639793,0.9084475 0.862745,2.4926893 1.023389,3.5991663 0,0 0.279731,1.246343 0.279731,1.246343 0,0 0.727038,3.323584 0.727038,3.323584 0.422371,1.305892 1.120324,1.105092 1.740725,2.078626 0.677181,1.064931 0.958302,3.301426 0.967994,4.568543 0.0083,1.200645 0.01525,2.356974 -0.85998,3.311121 -1.156327,1.258806 -2.053692,0.769962 -2.559155,1.681179 -0.209111,0.378059 -0.180032,0.822587 -0.181416,1.23942 0,0 0,5.539303 0,5.539303 0.0029,2.18803 0.664717,1.528853 0.692413,3.04662 0,0 0,0.692412 0,0.692412 -0.03464,2.866595 -3.060466,6.724722 -5.123856,8.547155 0,0 -3.146327,2.825046 -3.146327,2.825046 -0.285275,0.254805 -1.002615,0.83782 -1.002615,1.22972 0.0014,0.6398 1.580088,1.45961 2.210184,2.21573 0,0 -3.185101,-0.55393 -3.185101,-0.55393 0.466686,-0.8032 0.603784,-0.448685 0.55393,-1.52331 -0.855822,0.07755 -1.80443,0.448685 -2.250344,1.246345 -0.43068,0.793505 0.511001,0.67718 0,1.80027 -0.583012,1.25881 -2.009383,2.739189 -3.150481,5.400829 -0.779657,1.81966 -0.87244,3.55069 -2.492687,2.90813 0.585782,-0.340665 0.732574,-0.77827 0.985996,-1.384825 0.171719,-0.414065 0.499922,-0.967995 0.535929,-1.384825 0.105252,-1.20757 -0.940298,-2.484385 -1.383443,-3.600545 0,0 0.415448,-0.13849 0.415448,-0.13849 0,0 -0.830897,-0.692414 -0.830897,-0.692414 0,0 0,0.553934 0,0.553934 -1.217261,-0.596864 -0.535927,-1.034464 -0.937527,-1.605019 -0.24373,-0.34759 -1.121709,-0.61902 -1.485918,-0.91675 -0.271426,-0.220195 -0.354516,-0.493005 -0.48469,-0.80182 0,0 -0.692413,0.13849 -0.692413,0.13849 0.542852,-0.65641 1.467916,-1.373755 2.354206,-1.444375 0.592705,-0.04565 1.293427,0.63425 1.402829,1.190945 0.06647,0.2105 0.01522,0.333745 0,0.530395 0,0 0.67441,0.83089 0.67441,0.83089 0,0 0.553931,-0.138485 0.553931,-0.138485 -0.01391,0.52623 0.04293,0.78797 -0.415449,1.10786 0,0 0.276966,0.69242 0.276966,0.69242 0.398829,-0.720115 0.855823,-1.521925 0.533158,-2.35421 -0.375288,-0.974915 -1.31974,-1.36267 -1.808584,-1.96368 -0.43622,-0.535935 -1.222802,-2.32236 -1.485919,-3.021696 -0.278349,-0.740885 -0.523463,-1.840438 -0.556699,-2.631173 -0.04431,-1.045545 0.330973,-1.336358 -0.282506,-2.215719 -0.4653,1.092628 -0.414063,1.761496 -0.415447,2.908131 -0.0027,1.388982 -0.130178,1.059393 -0.351746,2.215726 -0.51931,2.699031 -0.650869,3.523001 -2.279425,5.816271 0,0 1.661792,-1.10786 1.661792,-1.10786 0,0 -0.138488,0.69241 -0.138488,0.69241 -0.794891,0.180035 -1.196491,0.94307 -1.71303,1.498385 0,0 -1.1591,1.038619 -1.1591,1.038619 -0.360055,0.472225 -0.807355,2.434525 -0.630096,3.002305 0.271426,0.8669 1.445758,1.659025 1.840434,3.32358 0,0 -2.077241,-1.24634 -2.077241,-1.24634 0,0 -0.415447,1.24634 -0.415447,1.24634 z M 33.872129,21.495287 c -0.836435,0.235422 -0.56501,0.588552 -0.553932,1.246345 1.481765,0.434836 0.931989,-0.366979 0.553932,-1.246345 z m 2.581317,0.603786 c 0.08585,-0.114935 0.04986,-0.465303 0.04986,-0.465303 0,0 -0.415448,0 -0.415448,0 0,0 0,0.553932 0,0.553932 0,0 0.249268,0.06786 0.365595,-0.08863 z m -1.250499,-0.308816 c 0.123244,-0.06232 0.469457,-0.01801 0.469457,-0.01801 0.175872,0.299122 -0.458379,0.440375 -0.553932,0.276966 0,0 -0.06647,-0.184182 0.08448,-0.258963 z m -9.22433,1.643789 c 0,0 -0.692414,-0.276967 -0.692414,-0.276967 0,0 0,0.830897 0,0.830897 0.488844,-0.08448 0.506846,-0.09279 0.692414,-0.55393 z m -2.631172,0.55393 c 0,0 -0.276966,0.553931 -0.276966,0.553931 0,0 0.692413,0 0.692413,0 z m 11.632544,8.308956 c -1.735186,0.139867 -2.319583,0.54978 -3.877514,1.103709 -0.642559,0.228498 -0.6024,0.05675 -1.384826,0.419605 0,0 0,0.276964 0,0.276964 0,0 0.138488,0.138489 0.138488,0.138489 0,0 1.107862,-0.235422 1.107862,-0.235422 0,0 1.107862,-0.11356 1.107862,-0.11356 0,0 0.969379,-0.318514 0.969379,-0.318514 0,0 1.10786,-0.252037 1.10786,-0.252037 z m 11.494065,5.816276 c 0.745036,0.418214 1.542696,1.537154 2.147865,2.171409 0,0 1.013694,0.887669 1.013694,0.887669 1.010921,1.02893 2.132636,2.473302 3.347126,3.25019 0.92091,0.588555 2.01908,0.749193 3.046625,1.077397 0,0 7.062609,2.345895 7.062609,2.345895 0,0 3.32359,1.503925 3.32359,1.503925 0.31989,0.177258 0.913975,0.427912 1.10509,0.727031 0.171715,0.27004 0.141255,0.7395 0.141255,1.053855 0,0 0,11.632544 0,11.632544 0,0 -28.665921,0 -28.665921,0 0,0 1.47484,-2.348665 1.47484,-2.348665 0,0 -0.08724,-1.52885 -0.08724,-1.52885 0,0 0.826741,-2.492685 0.826741,-2.492685 0,0 -0.27558,-1.661794 -0.27558,-1.661794 0,0 1.523311,0.69241 1.523311,0.69241 0.0097,-3.39559 1.609167,-4.965985 3.031385,-7.755029 0.573318,-1.121708 0.768581,-2.297428 1.184028,-3.462068 0.354516,-0.994305 0.829511,-1.963683 0.844742,-3.04662 0.01524,-1.013687 -0.767191,-2.07308 -1.044156,-3.046614 z M 22.655032,54.315679 v 0 0 0"
       style="fill:#000000;fill-opacity:0.15;stroke:#000000;stroke-width:0.135584;stroke-dasharray:none;stroke-opacity:0" /><path
       id="level-2"
       fill="none"
       stroke="#000000"
       stroke-width="3.1918"
       d="m 0.08235801,62.771556 c 0,0 0.78658226,-4.015995 0.78658226,-4.015995 0,0 0.20633823,-2.07724 0.20633823,-2.07724 0,0 0.4085236,-1.38483 0.4085236,-1.38483 0.6245578,-2.32789 1.249114,-4.36913 3.4454493,-5.687482 1.2380352,-0.743653 1.9096767,-0.772734 3.1851022,-1.110631 0,0 1.3848266,-0.440376 1.3848266,-0.440376 0,0 2.3542048,-0.576088 2.3542048,-0.576088 0,0 5.915981,-1.930448 5.915981,-1.930448 0,0 1.146636,-0.150951 1.146636,-0.150951 0,0 2.215723,-0.537314 2.215723,-0.537314 0.474996,-0.102471 1.258807,-0.177256 1.661792,-0.39052 0.66887,-0.355901 1.015079,-1.056623 1.465147,-1.627173 0.487458,-0.617632 0.883518,-0.864132 1.23111,-1.674255 0.668872,-1.562085 -0.747806,-2.138174 -1.521925,-3.243265 0,0 -0.645329,-1.188179 -0.645329,-1.188179 0,0 -0.82951,-1.384829 -0.82951,-1.384829 -0.595477,-1.192335 -0.966611,-2.610399 -1.377902,-3.877515 0,0 -1.028928,-3.185101 -1.028928,-3.185101 0,0 -0.218803,-1.661792 -0.218803,-1.661792 0,0 -0.469456,-2.769653 -0.469456,-2.769653 0,0 -0.423757,-1.52331 -0.423757,-1.52331 0,0 -0.373902,-2.07724 -0.373902,-2.07724 0,0 -0.474997,-2.215723 -0.474997,-2.215723 0,0 -0.329589,-3.877515 -0.329589,-3.877515 -0.06093,-0.826741 -0.300507,-1.022001 -0.258962,-2.07724 0,0 0.423758,-2.6311714 0.423758,-2.6311714 -0.0014,-0.573317 -0.426527,-0.685488 -0.293584,-1.3848245 C 17.80122,7.372942 18.410539,6.8370135 18.421619,6.27062 18.435524,5.5768215 17.381615,4.8760995 17.749976,4.1144441 c 0.177259,-0.3683643 0.673027,-0.3060472 1.027543,-0.390522 0.250652,-0.059553 1.370978,-0.5483903 1.603629,-0.6896423 1.881981,-1.1480213 0.949991,-1.0067692 3.381746,-1.8307417 0,0 0.96938,-0.38221146 0.96938,-0.38221146 0.595475,-0.1537154 0.702107,0.0927887 1.52331,-0.0927885 0,0 1.523309,-0.46391721 1.523309,-0.46391721 0,0 2.077239,-0.19664554 2.077239,-0.19664554 1.160486,0.06647156 1.527466,0.6744098 2.492689,0.8959822 0,0 1.523311,0.44175941 1.523311,0.44175941 0,0 1.384826,0.2284977 1.384826,0.2284977 0,0 1.107862,0.3946747 1.107862,0.3946747 0,0 0.679949,0.166179 0.679949,0.166179 0,0 0.987381,0.5996309 0.987381,0.5996309 0,0 1.102324,0.4196017 1.102324,0.4196017 0.537311,0.2340357 1.595318,0.9984602 2.075854,1.3792879 0.934759,0.7422667 1.077395,1.3045077 1.696412,2.2295711 0.52762,0.7851965 1.022003,0.945837 1.513617,1.9401417 0.375288,0.7616555 0.686874,3.0327713 0.913985,4.0159993 0.242346,1.052467 0.492999,3.444062 1.098169,4.280498 0.249268,0.343436 0.517925,0.495768 0.872439,0.704877 0,0 -0.138486,0.415447 -0.138486,0.415447 0.649483,0.378059 0.693798,0.840591 0.889058,1.52331 0.549776,1.917984 0.512387,1.944297 0.49577,3.877515 0,0 0.276963,-0.138488 0.276963,-0.138488 -0.0014,1.7615 -0.621788,3.59778 -2.631171,3.877516 0.315741,-0.671642 0.364209,-0.774118 1.107862,-0.969378 0,0 0.276966,-1.800275 0.276966,-1.800275 -1.064931,0.036 -1.145253,0.437604 -1.476227,0.31851 -0.570547,-0.207726 0.0083,-1.024773 -0.160633,-1.444376 -0.198031,-0.491612 -0.832283,-0.721494 -1.271273,-0.951375 -0.139861,0.779658 -0.243729,2.712876 -0.08448,3.462066 0,0 0.361441,1.107863 0.361441,1.107863 0,0 0.969378,0.138487 0.969378,0.138487 0,0 0,0.276965 0,0.276965 -0.267271,0.229881 -0.432066,0.353131 -0.574703,0.695183 -0.19526,0.469457 -0.117716,2.291889 -0.117716,2.905366 0,0 0,3.739033 0,3.739033 0.0027,2.12294 0.638407,1.599476 0.689644,2.908136 0.04015,1.004 -0.35313,2.253114 -0.966608,3.04662 0,0 -0.138489,-0.415449 -0.138489,-0.415449 0.427912,-0.239574 -0.321278,-1.383441 -0.553929,-1.661792 0,0 -0.102472,-1.246344 -0.102472,-1.246344 0,0 0.238192,-1.523308 0.238192,-1.523308 0.018,-0.232653 0.01111,-0.699339 -0.213265,-0.843361 -0.347591,-0.222958 -1.094012,0.79212 -1.365439,1.026158 -1.31697,1.125862 -1.226956,1.215878 -2.301582,2.363899 -0.526235,0.562238 -1.300352,1.22557 -1.656253,1.884748 -1.069085,0.240961 -2.167254,1.274041 -3.323583,1.593937 -0.538699,0.149561 -2.248959,0.441758 -2.559159,0.819816 -0.440376,0.540083 0.340665,1.186796 0.624555,1.753191 0.182797,0.365595 0.31574,0.681335 -0.142642,0.818433 0,0 -0.692413,2.354205 -0.692413,2.354205 0.963838,0.164794 0.742267,0.623173 1.390365,0.858593 0.224342,0.0817 1.79889,-0.152326 2.071703,-0.243729 1.117553,-0.372518 0.808736,-1.297584 1.800273,-1.307276 0,0 0.96938,-0.553932 0.96938,-0.553932 0,0 -0.138489,-0.415447 -0.138489,-0.415447 1.064933,-0.149561 1.693643,-0.931989 2.424832,-1.645175 0.800429,-0.782427 2.535618,-2.361129 3.529924,-2.786272 -0.108016,0.9583 -0.758884,1.737958 -1.31974,2.49269 -1.256038,1.688103 -2.783503,3.143556 -4.35805,4.531152 0,0 -1.960915,1.742113 -1.960915,1.742113 -0.196646,0.19526 -0.526234,0.490225 -0.526234,0.789355 0.0014,0.639785 1.580088,1.459605 2.210183,2.21572 0,0 -3.1851,-0.55393 -3.1851,-0.55393 0.466686,-0.8032 0.603783,-0.448685 0.55393,-1.523305 -0.855823,0.07754 -1.80443,0.44868 -2.250344,1.246335 -0.430681,0.79351 0.511,0.677185 0,1.80028 -0.583012,1.25881 -2.009383,2.73919 -3.150481,5.400825 -0.779658,1.81966 -0.872441,3.550695 -2.492689,2.90813 0.585783,-0.34066 0.732574,-0.778265 0.985997,-1.38482 0.171719,-0.414065 0.499923,-0.967995 0.535928,-1.384825 0.105253,-1.20757 -0.940297,-2.484385 -1.383442,-3.600555 0,0 0.415447,-0.138485 0.415447,-0.138485 0,0 -0.830895,-0.692415 -0.830895,-0.692415 0,0 0,0.55393 0,0.55393 -1.217263,-0.59686 -0.535927,-1.034465 -0.937527,-1.605015 -0.24373,-0.34759 -1.12171,-0.619015 -1.48592,-0.916755 -0.271426,-0.220185 -0.354515,-0.492995 -0.484688,-0.801815 0,0 -0.692414,0.13849 -0.692414,0.13849 0.542853,-0.656405 1.467916,-1.373745 2.354205,-1.444375 0.592707,-0.0457 1.293428,0.63425 1.402829,1.190955 0.06647,0.21049 0.01521,0.33374 0,0.53039 0,0 0.67441,0.83089 0.67441,0.83089 0,0 0.553933,-0.138485 0.553933,-0.138485 -0.0139,0.526235 0.04293,0.787965 -0.41545,1.10786 0,0 0.276967,0.692415 0.276967,0.692415 0.398829,-0.720115 0.855823,-1.52193 0.533157,-2.35421 -0.375287,-0.974915 -1.31974,-1.36267 -1.808584,-1.963685 -0.436219,-0.535925 -1.222802,-2.322353 -1.485919,-3.021691 -0.278349,-0.740881 -0.523463,-1.840434 -0.556699,-2.63117 -0.04431,-1.045545 0.330973,-1.336359 -0.282505,-2.215723 -0.465301,1.092627 -0.414064,1.7615 -0.415447,2.908135 -0.0027,1.388983 -0.13018,1.059394 -0.351747,2.215724 -0.51931,2.699025 -0.650869,3.523 -2.279425,5.816275 0,0 1.661792,-1.107865 1.661792,-1.107865 0,0 -0.138487,0.69242 -0.138487,0.69242 -0.794891,0.18002 -1.196493,0.943065 -1.713032,1.49838 0,0 -1.159099,1.03862 -1.159099,1.03862 -0.360055,0.472225 -0.807355,2.43452 -0.630097,3.002305 0.271427,0.8669 1.445759,1.65902 1.840436,3.323585 0,0 -2.077241,-1.246345 -2.077241,-1.246345 0,0 -0.415447,1.246345 -0.415447,1.246345 z M 35.672407,13.887171 c -0.01243,-1.307277 -1.92214,-0.731189 -2.769654,-0.692414 0,0 -0.96938,1.107863 -0.96938,1.107863 0.239576,0.271425 0.747808,0.774116 0.826742,1.112016 0.117715,0.50546 -0.394676,0.945836 -0.689644,1.30589 -1.328049,1.616094 -1.79335,0.873827 -1.79889,2.567469 0,0 0.830897,0 0.830897,0 0,0 0.415447,-0.96938 0.415447,-0.96938 0.84336,0.733959 0.574704,0.52762 1.661793,0.692415 0,0 -0.276965,0.276965 -0.276965,0.276965 0,0 0.692413,-0.276965 0.692413,-0.276965 -0.0817,-0.362825 0.09555,-0.501308 0.420987,-0.671642 0,0 0.801814,-0.292198 0.801814,-0.292198 0,0 0.601016,-0.414063 0.601016,-0.414063 0,0 1.084319,-0.560854 1.084319,-0.560854 0,0 0.138488,0.138488 0.138488,0.138488 0,0 -0.138488,0.415448 -0.138488,0.415448 0,0 0.553931,-0.276965 0.553931,-0.276965 0,0 0.415448,0.415448 0.415448,0.415448 0,0 -0.415448,-0.969378 -0.415448,-0.969378 0,0 1.523308,-0.138488 1.523308,-0.138488 0,0 -0.276965,0.55393 -0.276965,0.55393 0.336514,0.09555 0.875211,0.288044 1.203415,0.102471 0.308816,-0.177258 0.637021,-1.127248 -0.511,-0.933374 -0.407139,-1.319739 -1.660409,-0.857205 -2.44976,-1.406983 -0.487459,-0.339282 -0.06924,-0.570547 -0.873824,-1.085704 z m 10.109235,5.539307 c -1.208955,0.444528 -0.945838,1.516385 -0.692414,2.492688 0.416833,-0.149561 0.389136,-0.144016 0.553931,-0.55393 1.074625,0.79489 0.613478,0.613478 1.938758,0.55393 -0.144017,-1.243574 -0.624558,-0.853054 -1.107862,-2.077241 0,0 -0.55393,0.138488 -0.55393,0.138488 z m -7.478066,0.55393 c 0,0 -1.10786,0.16618 -1.10786,0.16618 -0.938912,0.05262 -2.610399,-0.110782 -3.185103,0.803199 1.433297,0.189722 4.097703,0.0083 4.569928,1.661793 -1.388979,-0.322666 -2.506536,0.06786 -3.73903,0.692412 0.09416,1.797505 -1.431912,1.481764 -2.631172,1.384828 0,0 -0.276966,0.692413 -0.276966,0.692413 0,0 0.138489,0 0.138489,0 0,0 0.276964,0.276966 0.276964,0.276966 1.289275,-0.77135 1.456839,-0.44453 2.769654,-0.189722 0.332359,0.06371 0.901522,0.03324 1.120325,0.330975 0.192491,0.261731 -0.05955,0.504075 -0.306047,0.569162 -0.254808,0.101097 -1.074624,0.018 -1.368208,0 0,0 -0.138489,0.397446 -0.138489,0.397446 -0.846128,-0.48746 -1.780888,-0.72288 -2.769653,-0.684105 -0.469456,0.018 -1.099552,0.306048 -0.692413,0.871055 0.360054,0.501308 1.749036,0.225727 2.354205,0.228498 1.899983,0.0097 2.197721,0.865516 3.341588,2.052312 0,0 1.336357,1.272657 1.336357,1.272657 0.540084,0.650868 0.390522,1.073241 0.879367,1.305891 0.584396,0.27835 1.214492,-0.711801 1.366822,-1.168794 0,0 0.969379,0.553932 0.969379,0.553932 0,0 0.36144,-1.222803 0.36144,-1.222803 0,0 0.563625,-0.994305 0.563625,-0.994305 0,0 0,-1.660407 0,-1.660407 0,0 -0.509616,-5.262343 -0.509616,-5.262343 0,0 0.276964,0.415448 0.276964,0.415448 0,0 0,-2.077238 0,-2.077238 0,0 -0.692413,-0.138489 -0.692413,-0.138489 0,0 -0.138488,0.55393 -0.138488,0.55393 -0.789351,-0.141251 -2.512074,0.01112 -2.769655,-0.830895 z m -6.370203,2.769655 c -1.286503,-0.52208 -0.584396,-0.754732 -1.07324,-1.310047 -0.414064,-0.469457 -1.526081,-0.754731 -2.11186,-0.628711 0.0817,0.872439 -0.32682,0.804585 -0.210494,1.390365 0.05677,0.290815 0.265885,0.592706 0.443144,0.825358 0.949989,1.23942 1.725495,1.186796 3.090933,1.52331 0,0 -0.830895,-0.553933 -0.830895,-0.553933 z m 1.938759,-1.246346 c -0.60794,0.343437 -0.545623,0.598246 -0.553932,1.246346 1.23942,0.181411 0.900139,-0.400216 0.553932,-1.246346 z m 2.63117,0.138488 c 0,0 -0.415448,0 -0.415448,0 0,0 0,0.553932 0,0.553932 0.112171,0.123244 0.595475,-0.355902 0.415448,-0.553932 z m -1.285119,0.138487 c 0.12048,-0.05955 0.454224,0 0.454224,0 0.150951,0.292199 -0.498538,0.383597 -0.553932,0.276967 0,0 -0.05401,-0.2008 0.09971,-0.276967 z m 9.455596,0.692414 v 0 0 0 m -18.695161,0.969378 c 0,0 -0.692413,-0.276965 -0.692413,-0.276965 0,0 0,0.830895 0,0.830895 0.488845,-0.08448 0.506846,-0.09279 0.692413,-0.55393 z m -2.631171,0.55393 c 0,0 -0.276965,0.553933 -0.276965,0.553933 0,0 0.692412,0 0.692412,0 z m 13.017373,5.816274 c 0,0 -2.354207,-1.420832 -2.354207,-1.420832 0,0 -0.692413,0.312971 -0.692413,0.312971 -0.818432,-0.602399 -1.930448,-0.116326 -2.215722,0.830895 0,0 0.415447,0.138489 0.415447,0.138489 -0.657792,0.337897 -0.768579,0.35313 -0.830897,1.107861 1.156331,-0.06371 1.229728,-0.45007 1.938758,-0.497152 0,0 0.692414,0 0.692414,0 0,0 0.830896,-0.09001 0.830896,-0.09001 0.955532,-0.07754 1.326665,0.191105 2.215724,-0.382211 z M 29.622097,29.341847 C 29.041854,29.839 29.494698,30.610349 30.134484,30.361079 30.392061,30.259981 31,29.809918 30.801971,29.474791 30.612248,29.152126 29.911527,29.27122 29.622097,29.341848 Z m 15.328648,-0.08309 c -0.294968,0.465303 -0.294968,0.64256 0,1.107862 z m -8.862891,2.077241 c -1.704723,-0.267271 -3.270962,0.538697 -4.985376,0.55393 0.454223,1.130019 2.172794,0.328205 3.046618,0.198031 0,0 1.107862,-0.146797 1.107862,-0.146797 0.495767,-0.11078 0.587166,-0.173104 0.830896,-0.60517 z m -1.107863,0.969378 c -1.735186,0.139863 -2.319583,0.549777 -3.877513,1.103707 -0.64256,0.228497 -0.6024,0.05677 -1.384827,0.419603 0,0 0,0.276965 0,0.276965 0,0 0.138488,0.138488 0.138488,0.138488 0,0 1.107862,-0.235421 1.107862,-0.235421 0,0 1.107862,-0.113561 1.107862,-0.113561 0,0 0.96938,-0.31851 0.96938,-0.31851 0,0 1.107859,-0.252037 1.107859,-0.252037 z m 0.138489,5.954756 c 0.336514,-0.613477 0.630097,-0.642559 0.938912,-1.131403 0.432067,-0.68549 0.297738,-1.067702 0.4473,-1.638251 0,0 0.346205,-1.246344 0.346205,-1.246344 0.07339,-0.317126 0.23819,-1.307275 0,-1.519155 -0.407138,-0.317126 -0.915368,0.09971 -1.206184,0.335128 -0.49438,0.400214 -1.207568,0.92091 -1.772576,1.197874 -0.560856,0.275582 -1.588397,0.695184 -1.880595,1.276811 -0.264503,0.529005 0.152324,0.891829 0.218803,1.755961 0.746421,0.160635 0.958299,0.32682 0.830895,1.107862 1.064932,0.520695 0.362826,-0.342052 2.07724,-0.138487 z m 3.877515,-5.400825 c 0,0 -0.415448,0.830896 -0.415448,0.830896 0.52208,-0.210493 0.535928,-0.28943 0.415448,-0.830896 z m 2.07724,0 c -0.443144,0.448684 -0.538697,0.702107 0,1.107862 z m -0.55393,1.246344 c -0.508231,0.09832 -0.569164,0.08864 -0.830897,0.553931 0,0 0.553931,0.138487 0.553931,0.138487 z m 5.954755,4.015998 c 0.745037,0.418218 1.542697,1.537158 2.147867,2.17141 0,0 1.013692,0.887672 1.013692,0.887672 1.010922,1.028927 2.132632,2.473301 3.347127,3.250189 0.92091,0.588551 2.019075,0.749193 3.046615,1.077395 0,0 7.06262,2.345897 7.06262,2.345897 0,0 3.32358,1.503921 3.32358,1.503921 0.3199,0.17726 0.91399,0.427912 1.105095,0.727038 0.17172,0.270035 0.14125,0.739495 0.14125,1.05385 0,0 0,11.632545 0,11.632545 0,0 -28.665911,0 -28.665911,0 0,0 1.47484,-2.34866 1.47484,-2.34866 0,0 -0.08724,-1.52885 -0.08724,-1.52885 0,0 0.826741,-2.49269 0.826741,-2.49269 0,0 -0.27558,-1.661795 -0.27558,-1.661795 0,0 1.523311,0.692415 1.523311,0.692415 0.0097,-3.395595 1.609167,-4.96599 3.031385,-7.755031 0.573318,-1.121711 0.768579,-2.297428 1.184027,-3.462068 0.354515,-0.994305 0.829512,-1.963685 0.844745,-3.046619 0.01521,-1.013694 -0.767194,-2.073085 -1.04416,-3.046619 z m -13.709785,0.692414 c 0,0 -0.692413,-0.138488 -0.692413,-0.138488 0,0 0.415447,0.553931 0.415447,0.553931 0,0 0.276966,-0.138488 0.276966,-0.138488 z M 22.655039,54.324126 v 0 0 0"
       style="fill:#000000;fill-opacity:0.35;stroke:#000000;stroke-width:0.135584;stroke-dasharray:none;stroke-opacity:0" /><path
       id="Selection #1"
       fill="none"
       stroke="#000000"
       stroke-width="3.1918"
       d="m 0.08235775,62.762997 c 0,0 0.78657896,-4.015986 0.78657896,-4.015986 0,0 0.20633949,-2.077241 0.20633949,-2.077241 0,0 0.4085227,-1.384822 0.4085227,-1.384822 0.6342492,-2.366665 1.2961959,-4.493756 3.5839253,-5.767794 1.2906558,-0.720107 1.7656499,-0.691026 3.0466113,-1.030309 0,0 1.3848252,-0.440374 1.3848252,-0.440374 0,0 2.3542003,-0.576087 2.3542003,-0.576087 0,0 5.915967,-1.930444 5.915967,-1.930444 0,0 1.146634,-0.15095 1.146634,-0.15095 0,0 2.215718,-0.537313 2.215718,-0.537313 0.474995,-0.102471 1.258805,-0.177257 1.661789,-0.390519 0.668869,-0.355901 1.015077,-1.056621 1.465144,-1.62717 0.50823,-0.643942 0.9763,-0.962451 1.286502,-1.812734 0.583009,-1.602241 -0.962453,-1.927675 -1.801657,-3.474523 0,0 -1.316968,-2.341738 -1.316968,-2.341738 0,0 -1.555157,-4.569918 -1.555157,-4.569918 0,0 -0.785194,-2.354202 -0.785194,-2.354202 0,0 -0.218803,-1.661789 -0.218803,-1.661789 0,0 -0.469455,-2.769646 -0.469455,-2.769646 0,0 -0.423756,-1.523308 -0.423756,-1.523308 0,0 -0.373902,-2.077235 -0.373902,-2.077235 0,0 -0.474996,-2.215719 -0.474996,-2.215719 0,0 -0.329588,-3.877506 -0.329588,-3.877506 -0.06093,-0.826741 -0.300507,-1.022 -0.258962,-2.077237 0,0 0.408524,-2.4926836 0.408524,-2.4926836 C 18.021371,8.8559474 17.52283,8.8213265 17.66685,8.0624435 17.784566,7.4461957 18.237399,7.0058227 18.373111,6.5391371 18.645921,5.601611 17.334493,4.9645928 17.74994,4.1060007 c 0.188336,-0.3919049 0.693797,-0.2838889 1.166022,-0.4251406 0.696566,-0.2091086 1.492841,-0.6674849 2.082774,-1.0898564 1.526078,-1.0912418 1.260191,-0.8350488 2.902592,-1.4457566 0.31851,-0.1177153 0.635635,-0.30604654 0.969377,-0.39467406 0.511,-0.0567722 0.619017,0.14264206 1.384825,0 0,0 1.523306,-0.4943828 1.523306,-0.4943828 0.258962,-0.0706259 1.948446,-0.21326297 2.215718,-0.18418175 0.985995,0.10940635 1.202026,0.46945603 1.938754,0.76026849 0,0 1.938754,0.56500862 1.938754,0.56500862 0,0 1.384823,0.2284955 1.384823,0.2284955 0,0 1.10786,0.3946757 1.10786,0.3946757 0,0 0.679948,0.1661786 0.679948,0.1661786 0.401599,0.1578696 0.484688,0.3905195 1.121707,0.6550215 0,0 1.106474,0.4265259 1.106474,0.4265259 1.071855,0.5165389 2.398515,1.5773144 3.039688,2.5785412 0,0 0.782426,1.2338791 0.782426,1.2338791 0.569163,0.7242619 1.051081,0.920907 1.447142,1.9512174 0,0 1.672867,7.6165325 1.672867,7.6165325 0.271425,0.642558 0.758883,0.825355 1.089857,1.384823 -1.440217,-0.06232 -1.138325,0.858591 -2.492683,0.969377 0,2.16171 -0.411294,1.125862 -0.415448,2.90813 0,0 0,4.292955 0,4.292955 0.01112,0.94445 0.07478,1.944292 0.55393,2.769649 0,0 0.276964,-1.938754 0.276964,-1.938754 0,0 0.692413,0.138487 0.692413,0.138487 0,0 0,0.276964 0,0.276964 -0.715955,0.614862 -0.691028,0.908445 -0.692413,1.800271 0,0 0,5.539297 0,5.539297 0,0.358669 -0.01112,0.758882 0.07339,1.10786 0.18695,0.7755 1.154943,1.92352 0.342051,3.323576 -0.0014,-2.603469 -0.671639,-2.289113 -0.692411,-4.01599 0,0 0,-3.46206 0,-3.46206 0,0 -0.448685,1.246343 -0.448685,1.246343 0,0 -1.04831,2.192176 -1.04831,2.192176 0,0 -3.046613,3.374816 -3.046613,3.374816 0,0 -1.549617,1.772574 -1.549617,1.772574 -0.933373,0.210493 -1.959527,1.063546 -2.91367,1.456836 -1.124478,0.4653 -3.732102,0.869668 -4.979828,0.897366 0,0 0.138487,1.107858 0.138487,1.107858 -1.25742,0.0457 -1.275423,-1.153557 -2.908131,-1.697794 -0.193873,-0.06508 -0.466685,-0.170333 -0.673024,-0.121869 -0.329589,0.07617 -0.441758,0.426526 -0.529002,0.7118 -0.264502,0.86413 0.160633,1.517766 0.371132,2.3542 0,0 1.125864,3.322192 1.125864,3.322192 0,0 1.300348,2.217101 1.300348,2.217101 0.105252,0.530389 -0.257577,0.887673 -0.186952,1.304513 0.0817,0.477759 0.552546,0.733953 0.668871,2.019071 1.276808,0.0277 1.430522,-0.529004 2.276652,-1.290658 0,0 1.059389,-0.740883 1.059389,-0.740883 0,0 2.606239,-1.503917 2.606239,-1.503917 0.81843,-0.587166 3.715483,-3.293112 4.434206,-4.081078 0,0 2.741951,-3.046612 2.741951,-3.046612 0.36144,-0.425141 1.041388,-1.391748 1.422215,-1.661789 -0.108016,0.958297 -0.758884,1.737955 -1.319738,2.492683 -1.256035,1.688101 -2.783496,3.14355 -4.35804,4.531144 0,0 -1.960912,1.742112 -1.960912,1.742112 -0.196644,0.195259 -0.526233,0.490224 -0.526233,0.789348 0.0014,0.639794 1.580085,1.459602 2.21018,2.215716 0,0 -3.185095,-0.553929 -3.185095,-0.553929 0.466685,-0.803199 0.603783,-0.448679 0.553929,-1.523302 -0.85582,0.07755 -1.804425,0.448679 -2.250338,1.246337 -0.430681,0.793509 0.510999,0.677184 0,1.800272 -0.583012,1.258812 -2.00938,2.739184 -3.150476,5.400814 -0.779655,1.81966 -0.872438,3.550687 -2.492683,2.908133 0.585781,-0.340669 0.732573,-0.778273 0.985995,-1.384827 0.171719,-0.414064 0.499921,-0.967993 0.535928,-1.384821 0.105251,-1.207568 -0.940296,-2.484375 -1.38344,-3.600543 0,0 0.415447,-0.13849 0.415447,-0.13849 0,0 -0.830895,-0.692414 -0.830895,-0.692414 0,0 0,0.553934 0,0.553934 -1.21726,-0.596858 -0.535926,-1.034463 -0.937526,-1.605011 -0.243729,-0.34759 -1.121706,-0.619019 -1.485916,-0.916754 -0.271425,-0.220189 -0.354514,-0.492999 -0.484688,-0.801818 0,0 -0.692411,0.13849 -0.692411,0.13849 0.542851,-0.656404 1.467913,-1.373742 2.3542,-1.444372 0.592705,-0.0457 1.293425,0.634253 1.402827,1.190952 0.06647,0.210495 0.01521,0.33374 0,0.530389 0,0 0.674409,0.830894 0.674409,0.830894 0,0 0.55393,-0.138485 0.55393,-0.138485 -0.0139,0.526234 0.04293,0.787963 -0.415448,1.107853 0,0 0.276965,0.692413 0.276965,0.692413 0.398828,-0.720103 0.855821,-1.521917 0.533157,-2.3542 -0.375287,-0.974913 -1.319737,-1.362667 -1.80858,-1.963681 -0.43622,-0.535929 -1.2228,-2.322349 -1.485916,-3.021687 -0.27835,-0.74088 -0.523462,-1.84043 -0.556698,-2.631166 -0.04431,-1.045541 0.330971,-1.336355 -0.282506,-2.215717 -0.4653,1.092626 -0.414062,1.761495 -0.415446,2.908129 -0.0027,1.388979 -0.130179,1.059392 -0.351745,2.215719 -0.51931,2.699027 -0.794891,3.661475 -2.422057,5.954745 -0.0069,-0.004 0.189719,-0.0277 0.376672,-0.203569 0.448681,-0.422369 1.190949,-1.215873 1.427753,-1.042773 0,0 -0.138488,0.692414 -0.138488,0.692414 -0.794889,0.180024 -1.196488,0.943063 -1.713027,1.498377 0,0 -1.159097,1.038617 -1.159097,1.038617 -0.360055,0.472229 -0.807353,2.434526 -0.630095,3.002299 0.271426,0.866898 1.445755,1.659016 1.840431,3.323578 0,0 -2.077237,-1.246343 -2.077237,-1.246343 0,0 -0.415445,1.246343 -0.415445,1.246343 z M 43.011899,30.219632 c 0,0 0.517924,-1.465144 0.517924,-1.465144 0.08585,-0.570547 0.06786,-1.886129 0,-2.492683 0,0 0.268657,-2.550845 0.268657,-2.550845 0,0 -0.472225,-2.768263 -0.472225,-2.768263 0,0 -0.144017,-1.524692 -0.144017,-1.524692 0,0 -0.265885,-1.246342 -0.265885,-1.246342 -0.01521,-0.466686 0.209108,-0.696565 0.264502,-1.107857 0.166179,-1.220031 -0.527619,-1.9346 -1.143867,-2.867973 0,0 -1.030308,-1.991377 -1.030308,-1.991377 0,0 -0.404368,-1.233877 -0.404368,-1.233877 0,0 -1.275423,-2.2157189 -1.275423,-2.2157189 -0.463915,-0.764423 -0.799043,-1.4042117 -1.715797,-1.69087 -0.380827,-0.1052518 -0.591319,-0.055398 -0.969377,0 -1.935984,0.2284954 -2.610391,1.2712693 -4.292955,1.8113492 0,0 -0.969375,0.264502 -0.969375,0.264502 0,0 -0.969377,0.486074 -0.969377,0.486074 0,0 -1.823815,0.7353417 -1.823815,0.7353417 0,0 -2.463602,0.458376 -2.463602,0.458376 -0.440373,0.152325 -0.621785,0.357285 -0.987378,0.607937 -1.193718,0.818431 -2.424828,1.786423 -2.773803,3.282033 -0.276965,1.189564 0.516539,2.942752 0.598245,3.46206 0.0817,0.523464 -0.155106,0.927833 -0.0914,1.517767 0.0374,0.347592 0.214648,0.655023 0.340666,0.974916 0,0 1.938754,0.415449 1.938754,0.415449 -0.301892,0.725646 -0.577471,0.980455 -1.384825,1.082932 -1.166019,0.146796 -2.165863,-0.396061 -2.077235,0.994302 0,0 1.938754,-0.530388 1.938754,-0.530388 1.551002,-0.167561 2.352816,0.545622 2.90813,-0.438987 1.282347,0.333743 1.455451,1.153557 1.49561,2.3542 0,0 0,2.354201 0,2.354201 -0.146796,1.240802 -0.39606,1.121707 -0.240959,2.908131 0.08724,1.01369 0.866899,1.005382 0.866899,1.800271 0,0.693796 -0.610707,0.912599 -1.152173,1.107858 0,0 0,0.276966 0,0.276966 0,0 1.384823,0.692411 1.384823,0.692411 0,0 -0.969375,0 -0.969375,0 0,0 0.138488,0.553931 0.138488,0.553931 0.767193,-0.175874 2.005225,-0.162025 2.769648,0 0,0 -1.758727,0.670254 -1.758727,0.670254 0,0 -0.872439,0.853052 -0.872439,0.853052 0,0 0.415448,1.246341 0.415448,1.246341 0,0 -0.692411,0.138487 -0.692411,0.138487 0.03185,0.391905 0.06647,0.992918 0.357283,1.285117 0.246499,0.247884 0.660562,0.27558 1.109244,0.718723 0.477765,0.472225 0.764422,1.10509 1.580085,1.238034 0.721492,0.116325 1.038617,-0.36421 2.077237,-0.195261 0.455607,-1.427754 2.410977,-0.32128 2.631165,-2.215718 0,0 0.969375,-0.138488 0.969375,-0.138488 -0.117714,-1.44714 -0.246498,-0.747806 0.289429,-2.077235 0,0 0.182796,-0.684103 0.182796,-0.684103 0.247885,-0.707645 0.729804,-0.411294 0.918138,0.268655 0,0 0.132943,0.553931 0.132943,0.553931 0,0 0.969377,-0.276966 0.969377,-0.276966 0.225726,0.853053 0.117716,1.501148 0.969376,1.938754 0,0 -0.276964,-0.55393 -0.276964,-0.55393 0,0 0.55393,-0.138488 0.55393,-0.138488 0,0 0,-1.246341 0,-1.246341 0.225725,-0.04016 0.386366,-0.02632 0.553928,-0.220186 0,0 0.364209,-0.807354 0.364209,-0.807354 0.563623,-1.056619 1.003998,-0.949989 0.882133,-1.880591 0.5567,-0.497152 -0.101097,-0.872439 0.692412,-1.384823 0,0 0.276965,-0.969377 0.276965,-0.969377 z M 31.656342,20.110418 c 0.62594,-0.340667 1.642402,-0.559469 2.354201,-0.522079 0,0 1.107859,0.106625 1.107859,0.106625 -0.613476,1.197874 -2.370818,1.012307 -3.46206,0.692413 z m 1.523306,1.384823 c 1.143866,-0.486072 2.843046,-0.783811 3.739026,0.276965 0,0 -0.830895,-0.138488 -0.830895,-0.138488 -0.03324,0.199414 -0.0277,0.336513 -0.141251,0.523464 -0.23819,0.389136 -1.056621,0.742266 -1.473452,0.476379 -0.343438,-0.218802 -0.484689,-0.771345 -0.601014,-1.138325 z m 2.484376,0.276965 c 0.02078,0.271426 -0.541468,0.515155 -0.580243,0.0083 z m -9.685459,1.661789 c 0,0 -0.692412,-0.276966 -0.692412,-0.276966 0,0 0,0.830895 0,0.830895 0.526233,0.0041 0.580241,0.07894 0.692412,-0.553929 z m 22.711112,0 c 0.432065,1.088471 -0.250653,2.56054 -1.110629,3.251566 -0.432064,0.348977 -0.825354,0.652252 -1.382054,0.487459 1.001227,-0.603784 1.797502,-1.190949 2.200485,-2.354201 z m -25.342279,0.553929 c -0.14817,-0.130179 -0.50546,0.354516 -0.276964,0.55393 0,0 0.692411,0 0.692411,0 z m 2.908132,0.138487 c 0,0 -1.951218,0.422372 -1.951218,0.422372 0,0 -1.510843,0.547006 -1.510843,0.547006 0,0 -0.258961,1.208951 -0.258961,1.208951 0,0 -0.987381,0.868285 -0.987381,0.868285 0.567779,0.369747 0.454223,0.753343 0.55393,1.384824 0.911214,-0.04709 1.159098,0.353131 1.246341,-0.692412 0,0 0.692412,-0.138488 0.692412,-0.138488 -0.263116,0.391905 -0.991533,1.232494 -1.118937,1.546849 -0.145407,0.438989 -0.01391,0.787965 0,1.2228 -0.01391,0.94445 -0.04846,1.541309 0.260347,2.492683 0.193874,0.598244 0.452836,0.764422 0.761653,1.246342 0.472224,0.738111 0.918137,1.526075 1.481762,0.138488 0.751958,0.401598 0.589935,0.761653 0.901521,0.925063 0.296351,0.155105 0.630095,-0.113561 0.537311,-0.648099 -0.137098,-0.785194 -1.397287,-2.229565 -1.854279,-0.969377 -1.358514,-1.397286 0.923678,-1.879205 1.08847,-2.913668 0.101098,-0.627327 -0.468071,-0.843358 -0.47638,-1.279578 -0.0083,-0.39883 0.571933,-0.963837 0.624557,-1.484531 0.05677,-0.573317 -0.434835,-0.886288 -0.50823,-1.523306 -0.05262,-0.470841 0.398829,-1.796117 0.517925,-2.354204 z m 18.695123,5.123849 c -0.294969,0.465301 -0.294969,0.642559 0,1.10786 z m 0,1.661789 c 0,0 -0.276966,0.553931 -0.276966,0.553931 z m -9.832251,1.800271 c 0.299123,-0.570547 0.627326,-0.805967 1.246343,-0.969377 -0.404368,0.619017 -0.584396,0.67995 -1.246343,0.969377 z m 11.355556,5.400814 c 0.745037,0.418217 1.542695,1.537155 2.147863,2.171404 0,0 1.013692,0.887671 1.013692,0.887671 1.010919,1.028925 2.132627,2.473296 3.347124,3.250183 0.920904,0.588549 2.019071,0.74919 3.046614,1.077392 0,0 7.062595,2.345892 7.062595,2.345892 0,0 3.323583,1.50392 3.323583,1.50392 0.31989,0.177257 0.913979,0.427911 1.105083,0.727032 0.17172,0.27004 0.14126,0.739499 0.14126,1.053853 0,0 0,11.632521 0,11.632521 0,0 -28.665861,0 -28.665861,0 0,0 1.474836,-2.348661 1.474836,-2.348661 0,0 -0.08724,-1.528845 -0.08724,-1.528845 0,0 0.826739,-2.492685 0.826739,-2.492685 0,0 -0.275579,-1.661787 -0.275579,-1.661787 0,0 1.523307,0.692408 1.523307,0.692408 0.0097,-3.395583 1.609164,-4.965975 3.031379,-7.755012 0.573316,-1.121709 0.768578,-2.297424 1.184024,-3.462061 0.354515,-0.994303 0.82951,-1.96368 0.844743,-3.046613 0.01521,-1.013691 -0.767192,-2.073081 -1.044158,-3.046612 z"
       style="fill:#000000;fill-opacity:1;stroke-width:0.135584;stroke-dasharray:none"
       inkscape:export-filename="sebastian-headshot-256.svg"
       inkscape:export-xdpi="48"
       inkscape:export-ydpi="48" /></g></svg>
