<?xml version="1.0" encoding="UTF-8" standalone="no"?>
<!-- Created with Inkscape (http://www.inkscape.org/) -->

<svg
   width="256"
   height="237"
   viewBox="0 0 67.73333 62.706252"
   version="1.1"
   id="svg1"
   xml:space="preserve"
   inkscape:version="1.3.2 (091e20e, 2023-11-25, custom)"
   sodipodi:docname="sebastian-headshot.svg"
   xmlns:inkscape="http://www.inkscape.org/namespaces/inkscape"
   xmlns:sodipodi="http://sodipodi.sourceforge.net/DTD/sodipodi-0.dtd"
   xmlns="http://www.w3.org/2000/svg"
   xmlns:svg="http://www.w3.org/2000/svg"><sodipodi:namedview
     id="namedview1"
     pagecolor="#505050"
     bordercolor="#eeeeee"
     borderopacity="1"
     inkscape:showpageshadow="0"
     inkscape:pageopacity="0"
     inkscape:pagecheckerboard="0"
     inkscape:deskcolor="#505050"
     inkscape:document-units="mm"
     inkscape:zoom="1.0343421"
     inkscape:cx="165.80588"
     inkscape:cy="256.68491"
     inkscape:window-width="1920"
     inkscape:window-height="1017"
     inkscape:window-x="-8"
     inkscape:window-y="-8"
     inkscape:window-maximized="1"
     inkscape:current-layer="layer1" /><defs
     id="defs1" /><g
     inkscape:label="Layer 1"
     inkscape:groupmode="layer"
     id="layer1"><path
       id="level-3"
       fill="none"
       stroke="#000000"
       stroke-width="3.1918"
       d="m -10.473951,83.357274 c 0,0 1.0446775,-5.333744 1.0446775,-5.333744 0,0 0.2740455,-2.758841 0.2740455,-2.758841 0,0 0.5425705,-1.839219 0.5425705,-1.839219 0.8294882,-3.091742 1.6589797,-5.802751 4.5759874,-7.553692 1.644263,-0.987664 2.5362881,-1.026285 4.23021165,-1.475053 0,0 1.83922305,-0.584872 1.83922305,-0.584872 0,0 3.1266798,-0.765121 3.1266798,-0.765121 0,0 7.8571586,-2.563874 7.8571586,-2.563874 0,0 1.522876,-0.200487 1.522876,-0.200487 0,0 2.942759,-0.713619 2.942759,-0.713619 0.630852,-0.136091 1.671852,-0.235414 2.207066,-0.518659 0.888344,-0.472679 1.348151,-1.403324 1.945899,-2.161085 0.647404,-0.820296 1.173423,-1.147673 1.635067,-2.223619 0.915935,-2.137182 -1.134799,-2.915173 -2.127979,-4.465636 0,0 -0.750402,-1.419877 -0.750402,-1.419877 0,0 -1.189981,-2.023151 -1.189981,-2.023151 0,0 -2.596982,-7.540809 -2.596982,-7.540809 0,0 -1.425397,-7.540813 -1.425397,-7.540813 0,0 -0.562803,-2.023145 -0.562803,-2.023145 0,0 -0.49659,-2.758836 -0.49659,-2.758836 0,0 -0.630854,-2.942757 -0.630854,-2.942757 0,0 -0.437735,-5.149823 -0.437735,-5.149823 -0.08093,-1.098015 -0.39911,-1.357347 -0.343934,-2.758835 0,0 0.562804,-3.494526 0.562804,-3.494526 -0.0019,-0.761436 -0.566482,-0.910412 -0.389917,-1.839221 0.193117,-1.0078927 1.107212,-1.717834 0.993181,-2.5749123 -0.09566,-0.7264938 -1.482414,-1.9624503 -0.80742,-2.806654 0.272208,-0.340257 0.892024,-0.2979535 1.289296,-0.3917539 0.332901,-0.079093 1.820831,-0.7283331 2.12982,-0.9159333 2.499507,-1.5247161 1.261707,-1.3371157 4.491382,-2.4314539 0,0 1.287455,-0.5076242 1.287455,-0.5076242 0.790868,-0.20415339 0.932489,0.123235 2.023148,-0.12323501 0,0 2.023146,-0.61613999 2.023146,-0.61613999 0.343934,-0.0938003 2.587785,-0.2832404 2.942755,-0.24461683 1.309527,0.14530546 1.596444,0.62349734 2.574912,1.00973353 0,0 2.942758,0.8184534 2.942758,0.8184534 1.817153,0.3273814 1.335276,0.2869204 2.942757,0.7595986 0,0 0.903059,0.2207087 0.903059,0.2207087 0,0 1.311364,0.796383 1.311364,0.796383 0,0 1.647944,0.6400504 1.647944,0.6400504 0.630855,0.3034709 2.589626,1.6994411 3.093575,2.1923523 0.794543,0.7743129 1.215724,1.8097956 1.853935,2.6962994 0,0 1.449307,1.6644991 1.449307,1.6644991 0.849726,1.206531 1.145834,3.310602 1.359191,4.780141 0,0 0.371517,1.6553 0.371517,1.6553 0,0 0.965597,4.414135 0.965597,4.414135 0.560961,1.734389 1.487931,1.4677 2.311901,2.760676 0.899379,1.41436 1.272745,4.384706 1.285616,6.067595 0.011,1.594607 0.02025,3.130357 -1.142161,4.397583 -1.535747,1.671852 -2.727558,1.022607 -3.398878,2.232815 -0.277724,0.50211 -0.239105,1.0925 -0.240943,1.646105 0,0 0,7.356888 0,7.356888 0.0038,2.905977 0.882828,2.030508 0.919612,4.046292 0,0 0,0.91961 0,0.91961 -0.04601,3.807197 -4.064682,8.931272 -6.805121,11.351689 0,0 -4.178716,3.752015 -4.178716,3.752015 -0.37888,0.338414 -1.331597,1.11273 -1.331597,1.633222 0.0018,0.849734 2.098553,1.938545 2.935399,2.942767 0,0 -4.230213,-0.735689 -4.230213,-0.735689 0.619818,-1.06675 0.801902,-0.595909 0.735689,-2.023147 -1.136638,0.102999 -2.396508,0.595911 -2.988738,1.655303 -0.571997,1.053874 0.678674,0.89938 0,2.390983 -0.774313,1.671858 -2.668711,3.637985 -4.184231,7.172977 -1.035483,2.416736 -1.158711,4.71576 -3.310601,3.86236 0.777992,-0.452446 0.97295,-1.033641 1.309525,-1.839221 0.228065,-0.549931 0.66396,-1.285618 0.711782,-1.83922 0.139788,-1.603805 -1.248834,-3.299574 -1.837387,-4.781974 0,0 0.551767,-0.183931 0.551767,-0.183931 0,0 -1.103535,-0.919613 -1.103535,-0.919613 0,0 0,0.735693 0,0.735693 -1.616674,-0.79271 -0.711778,-1.373898 -1.245153,-2.131666 -0.323703,-0.461644 -1.489768,-0.822136 -1.973484,-1.217558 -0.360487,-0.292447 -0.470842,-0.654772 -0.64373,-1.064919 0,0 -0.919609,0.183933 -0.919609,0.183933 0.720975,-0.871795 1.949576,-1.824519 3.126679,-1.918311 0.787186,-0.06064 1.717833,0.842364 1.863132,1.581725 0.08828,0.279569 0.02022,0.443255 0,0.704431 0,0 0.8957,1.103525 0.8957,1.103525 0,0 0.735691,-0.183926 0.735691,-0.183926 -0.01849,0.6989 0.057,1.046523 -0.551769,1.471377 0,0 0.367845,0.919621 0.367845,0.919621 0.529697,-0.956403 1.13664,-2.021307 0.708101,-3.126686 -0.498429,-1.294808 -1.75278,-1.809795 -2.402025,-2.608012 -0.579355,-0.711788 -1.624035,-3.084386 -1.973486,-4.01319 -0.369683,-0.983988 -0.695224,-2.444331 -0.739366,-3.494527 -0.05885,-1.388615 0.439573,-1.77485 -0.375204,-2.942753 -0.617976,1.451148 -0.549926,2.339488 -0.551766,3.862363 -0.0035,1.844741 -0.172892,1.407006 -0.467162,2.942762 -0.689709,3.584648 -0.864436,4.678984 -3.027362,7.724734 0,0 2.207069,-1.471377 2.207069,-1.471377 0,0 -0.183931,0.919608 -0.183931,0.919608 -1.055713,0.239109 -1.589088,1.252514 -2.275117,1.990042 0,0 -1.53943,1.379415 -1.53943,1.379415 -0.478197,0.627175 -1.072267,3.233354 -0.836846,3.987437 0.360487,1.151352 1.920148,2.203393 2.444327,4.41413 0,0 -2.758837,-1.655294 -2.758837,-1.655294 0,0 -0.551764,1.655294 -0.551764,1.655294 z m 44.87704,-54.808846 c -1.110891,0.312671 -0.750405,0.781672 -0.735691,1.655303 1.967969,0.577515 1.237798,-0.487394 0.735691,-1.655303 z m 3.428311,0.801904 c 0.114019,-0.152648 0.06623,-0.617981 0.06623,-0.617981 0,0 -0.551766,0 -0.551766,0 0,0 0,0.735691 0,0.735691 0,0 0.331059,0.09012 0.485556,-0.117711 z m -1.660818,-0.410146 c 0.163682,-0.08277 0.623496,-0.02392 0.623496,-0.02392 0.23358,0.397271 -0.608784,0.584872 -0.735691,0.367845 0,0 -0.08828,-0.244616 0.1122,-0.343936 z m -12.251064,2.183157 c 0,0 -0.919613,-0.367846 -0.919613,-0.367846 0,0 0,1.103533 0,1.103533 0.649246,-0.1122 0.673156,-0.123236 0.919613,-0.735687 z m -3.494525,0.735687 c 0,0 -0.367845,0.73569 -0.367845,0.73569 0,0 0.919611,0 0.919611,0 z m 15.449472,11.035334 c -2.304543,0.185761 -3.080696,0.730175 -5.149822,1.465863 -0.853399,0.303474 -0.800063,0.07536 -1.839223,0.557287 0,0 0,0.367843 0,0.367843 0,0 0.18393,0.183932 0.18393,0.183932 0,0 1.471379,-0.312671 1.471379,-0.312671 0,0 1.471379,-0.150821 1.471379,-0.150821 0,0 1.287457,-0.423026 1.287457,-0.423026 0,0 1.471375,-0.334738 1.471375,-0.334738 z m 15.265555,7.724741 c 0.989501,0.55544 2.048893,2.041532 2.852634,2.883902 0,0 1.346313,1.178936 1.346313,1.178936 1.342628,1.366548 2.832407,3.284854 4.445401,4.316658 1.223084,0.781676 2.681592,0.995022 4.046298,1.430918 0,0 9.380029,3.115642 9.380029,3.115642 0,0 4.414142,1.9974 4.414142,1.9974 0.424855,0.235422 1.213877,0.568322 1.467697,0.965589 0.228058,0.358646 0.187604,0.982148 0.187604,1.399651 0,0 0,15.449473 0,15.449473 0,0 -38.071925,0 -38.071925,0 0,0 1.958772,-3.119321 1.958772,-3.119321 0,0 -0.115867,-2.030504 -0.115867,-2.030504 0,0 1.098016,-3.310596 1.098016,-3.310596 0,0 -0.366004,-2.207071 -0.366004,-2.207071 0,0 2.023147,0.919607 2.023147,0.919607 0.01289,-4.509768 2.137176,-6.59545 4.026057,-10.299649 0.761439,-1.489768 1.020774,-3.051272 1.572539,-4.598059 0.470841,-1.32056 1.101694,-2.608016 1.121922,-4.046292 0.02024,-1.346304 -1.018925,-2.75331 -1.38677,-4.046284 z M 19.505381,72.138012 v 0 0 0"
       style="fill:#000000;fill-opacity:0.15;stroke:#000000;stroke-width:0.180074;stroke-dasharray:none;stroke-opacity:0" /><path
       id="level-2"
       fill="none"
       stroke="#000000"
       stroke-width="3.1918"
       d="m -10.473953,83.368473 c 0,0 1.0446801,-5.333741 1.0446801,-5.333741 0,0 0.274043,-2.758836 0.274043,-2.758836 0,0 0.5425704,-1.839226 0.5425704,-1.839226 0.8294908,-3.09173 1.6589796,-5.802752 4.5759875,-7.553688 1.6442655,-0.987664 2.5362893,-1.026287 4.23021387,-1.475057 0,0 1.83922403,-0.584873 1.83922403,-0.584873 0,0 3.1266775,-0.765118 3.1266775,-0.765118 0,0 7.8571616,-2.563877 7.8571616,-2.563877 0,0 1.522876,-0.200482 1.522876,-0.200482 0,0 2.942757,-0.713618 2.942757,-0.713618 0.630854,-0.136096 1.671854,-0.235418 2.207068,-0.518661 0.888342,-0.47268 1.348152,-1.403327 1.945897,-2.16109 0.647406,-0.820291 1.173423,-1.147675 1.635069,-2.223619 0.888344,-2.074645 -0.993181,-2.839763 -2.021307,-4.307462 0,0 -0.857078,-1.578048 -0.857078,-1.578048 0,0 -1.101692,-1.839227 -1.101692,-1.839227 -0.790868,-1.58357 -1.283781,-3.466937 -1.830027,-5.149825 0,0 -1.366545,-4.230213 -1.366545,-4.230213 0,0 -0.290597,-2.207068 -0.290597,-2.207068 0,0 -0.623496,-3.678445 -0.623496,-3.678445 0,0 -0.562803,-2.023145 -0.562803,-2.023145 0,0 -0.496588,-2.758835 -0.496588,-2.758835 0,0 -0.630857,-2.942757 -0.630857,-2.942757 0,0 -0.437735,-5.149825 -0.437735,-5.149825 -0.08093,-1.098015 -0.39911,-1.357345 -0.343933,-2.758833 0,0 0.562803,-3.494527 0.562803,-3.494527 -0.0018,-0.761435 -0.56648,-0.910414 -0.389916,-1.839219 0.178409,-0.9269692 0.987663,-1.6387496 1.002377,-2.3909907 0.01848,-0.9214512 -1.381254,-1.8520976 -0.892026,-2.8636711 0.235422,-0.4892339 0.893864,-0.4064691 1.364707,-0.5186622 0.332896,-0.079092 1.82083,-0.7283308 2.129818,-0.9159311 2.499507,-1.5247158 1.261707,-1.3371153 4.491381,-2.4314539 0,0 1.287459,-0.5076246 1.287459,-0.5076246 0.790866,-0.20415323 0.932486,0.1232352 2.023147,-0.12323465 0,0 2.023144,-0.61614009 2.023144,-0.61614009 0,0 2.758834,-0.26116987 2.758834,-0.26116987 1.54127,0.08828251 2.028665,0.89570052 3.310602,1.18997641 0,0 2.023148,0.5867118 2.023148,0.5867118 0,0 1.839221,0.3034734 1.839221,0.3034734 0,0 1.47138,0.5241774 1.47138,0.5241774 0,0 0.903057,0.2207064 0.903057,0.2207064 0,0 1.311365,0.7963849 1.311365,0.7963849 0,0 1.464024,0.5572836 1.464024,0.5572836 0.713618,0.3108285 2.118781,1.3260799 2.756993,1.8318667 1.241477,0.9858231 1.430917,1.7325493 2.253047,2.961149 0.700747,1.0428396 1.357348,1.2561906 2.010274,2.5767516 0.498429,1.011572 0.912255,4.027898 1.213886,5.333749 0.321865,1.397807 0.654766,4.574144 1.458505,5.685036 0.331059,0.456126 0.687869,0.658442 1.158709,0.936166 0,0 -0.183928,0.551764 -0.183928,0.551764 0.862595,0.50211 0.921451,1.116409 1.180781,2.023147 0.730171,2.547321 0.680514,2.582269 0.658444,5.149824 0,0 0.367843,-0.18393 0.367843,-0.18393 -0.0018,2.339494 -0.825812,4.778302 -3.494524,5.149826 0.419343,-0.892025 0.483716,-1.028126 1.471378,-1.287454 0,0 0.367845,-2.390991 0.367845,-2.390991 -1.414359,0.04781 -1.521039,0.581193 -1.960613,0.423022 -0.757758,-0.275887 0.011,-1.361028 -0.21334,-1.918312 -0.263009,-0.652922 -1.105375,-0.958235 -1.688411,-1.263545 -0.185752,1.035484 -0.323702,3.603038 -0.1122,4.598057 0,0 0.48004,1.471381 0.48004,1.471381 0,0 1.287455,0.183927 1.287455,0.183927 0,0 0,0.367845 0,0.367845 -0.354969,0.305309 -0.573837,0.469001 -0.763277,0.923289 -0.259331,0.623497 -0.156343,3.043916 -0.156343,3.85869 0,0 0,4.965903 0,4.965903 0.0036,2.819529 0.847885,2.124304 0.915935,3.862368 0.05334,1.333437 -0.469,2.992416 -1.283776,4.046292 0,0 -0.183932,-0.551769 -0.183932,-0.551769 0.568321,-0.318184 -0.426698,-1.837381 -0.735687,-2.207066 0,0 -0.136095,-1.655301 -0.136095,-1.655301 0,0 0.31635,-2.023145 0.31635,-2.023145 0.02391,-0.308992 0.01476,-0.928807 -0.283245,-1.120087 -0.461642,-0.296117 -1.452983,1.052033 -1.813473,1.362865 -1.7491,1.495285 -1.629551,1.614839 -3.056789,3.139553 -0.698906,0.746723 -1.72703,1.627711 -2.199711,2.503181 -1.419878,0.320027 -2.878383,1.692088 -4.414134,2.116948 -0.715458,0.198636 -2.986897,0.586711 -3.398883,1.08882 -0.584873,0.717295 0.452447,1.576212 0.829489,2.328456 0.242777,0.485556 0.419342,0.904898 -0.189447,1.086982 0,0 -0.919611,3.126677 -0.919611,3.126677 1.280097,0.218866 0.985822,0.827651 1.846578,1.14032 0.297955,0.108504 2.38915,-0.202309 2.751481,-0.323704 1.48425,-0.494751 1.074101,-1.723354 2.390987,-1.736226 0,0 1.287458,-0.735691 1.287458,-0.735691 0,0 -0.18393,-0.551764 -0.18393,-0.551764 1.414365,-0.198637 2.24937,-1.237799 3.22048,-2.185 1.063069,-1.03916 3.367617,-3.135873 4.68818,-3.700516 -0.14346,1.272742 -1.007894,2.308225 -1.752781,3.310603 -1.668175,2.242012 -3.696839,4.175035 -5.788034,6.017936 0,0 -2.60434,2.313745 -2.60434,2.313745 -0.261171,0.25933 -0.698905,0.65108 -0.698905,1.048361 0.0018,0.849716 2.098556,1.938539 2.9354,2.942755 0,0 -4.230211,-0.735689 -4.230211,-0.735689 0.619815,-1.06675 0.801898,-0.59591 0.735687,-2.023139 -1.13664,0.102988 -2.396509,0.595903 -2.988738,1.655287 -0.571998,1.05388 0.678672,0.899388 0,2.390997 -0.774314,1.671858 -2.668712,3.637988 -4.184232,7.172972 -1.035484,2.416736 -1.158712,4.715766 -3.310602,3.862361 0.777993,-0.45244 0.972949,-1.033634 1.309527,-1.839215 0.228063,-0.54993 0.663959,-1.285619 0.711779,-1.839221 0.139789,-1.603803 -1.248833,-3.299575 -1.837383,-4.781986 0,0 0.551763,-0.183928 0.551763,-0.183928 0,0 -1.10353,-0.919611 -1.10353,-0.919611 0,0 0,0.735687 0,0.735687 -1.616679,-0.792704 -0.71178,-1.373899 -1.245155,-2.131662 -0.323703,-0.461642 -1.48977,-0.822128 -1.973487,-1.217564 -0.360487,-0.292433 -0.47084,-0.654759 -0.643725,-1.064911 0,0 -0.919613,0.183933 -0.919613,0.183933 0.720976,-0.871788 1.949576,-1.824505 3.126678,-1.918311 0.787189,-0.06069 1.717834,0.842364 1.863132,1.581736 0.08828,0.279558 0.02021,0.44325 0,0.704425 0,0 0.8957,1.103525 0.8957,1.103525 0,0 0.735693,-0.183924 0.735693,-0.183924 -0.01847,0.698905 0.05701,1.046516 -0.551769,1.471377 0,0 0.367846,0.919614 0.367846,0.919614 0.529696,-0.956403 1.136642,-2.021314 0.7081,-3.126686 C 28.5433,69.383007 27.288949,68.868018 26.639703,68.069796 26.060349,67.35802 25.015668,64.98542 24.666216,64.056611 24.296534,63.07263 23.970993,61.612287 23.92685,60.562089 c -0.05884,-1.388614 0.439573,-1.774851 -0.375203,-2.942756 -0.617976,1.451144 -0.549927,2.339492 -0.551763,3.862366 -0.0036,1.844743 -0.172897,1.407007 -0.467166,2.942758 -0.689708,3.584644 -0.864435,4.678985 -3.027361,7.724741 0,0 2.207069,-1.471383 2.207069,-1.471383 0,0 -0.18393,0.919619 -0.18393,0.919619 -1.055713,0.239089 -1.589092,1.252509 -2.27512,1.990036 0,0 -1.539428,1.379417 -1.539428,1.379417 -0.478198,0.627175 -1.072268,3.233347 -0.836848,3.987439 0.360489,1.15135 1.92015,2.203386 2.444329,4.414136 0,0 -2.758834,-1.655303 -2.758834,-1.655303 0,0 -0.551766,1.655303 -0.551766,1.655303 z M 36.794081,18.443899 c -0.0165,-1.736228 -2.552841,-0.971111 -3.678446,-0.919611 0,0 -1.287458,1.471379 -1.287458,1.471379 0.318187,0.360486 0.993183,1.028123 1.098016,1.476898 0.156341,0.671314 -0.524179,1.256187 -0.915932,1.734383 -1.763816,2.146377 -2.381794,1.160553 -2.389151,3.409922 0,0 1.103534,0 1.103534,0 0,0 0.551766,-1.287459 0.551766,-1.287459 1.120088,0.97479 0.763279,0.700745 2.207069,0.919614 0,0 -0.367844,0.367845 -0.367844,0.367845 0,0 0.919611,-0.367845 0.919611,-0.367845 -0.108506,-0.481877 0.126903,-0.6658 0.559123,-0.892025 0,0 1.06491,-0.388075 1.06491,-0.388075 0,0 0.798223,-0.549928 0.798223,-0.549928 0,0 1.440112,-0.744885 1.440112,-0.744885 0,0 0.183929,0.183931 0.183929,0.183931 0,0 -0.183929,0.551767 -0.183929,0.551767 0,0 0.73569,-0.367845 0.73569,-0.367845 0,0 0.551768,0.551767 0.551768,0.551767 0,0 -0.551768,-1.287455 -0.551768,-1.287455 0,0 2.023143,-0.183929 2.023143,-0.183929 0,0 -0.367845,0.735687 -0.367845,0.735687 0.446933,0.126902 1.162391,0.382559 1.598287,0.136095 0.410145,-0.23542 0.846042,-1.497125 -0.678673,-1.239637 -0.540732,-1.752778 -2.20523,-1.138476 -3.253586,-1.868649 -0.647407,-0.45061 -0.09196,-0.757757 -1.160549,-1.441951 z m 13.426328,7.356893 c -1.605642,0.590389 -1.25619,2.013948 -0.919613,3.310601 0.553609,-0.198635 0.516823,-0.191271 0.73569,-0.735689 1.427236,1.055714 0.814776,0.814776 2.574915,0.735689 -0.191275,-1.651622 -0.829492,-1.132963 -1.47138,-2.758835 0,0 -0.735689,0.183929 -0.735689,0.183929 z m -9.931807,0.735689 c 0,0 -1.471375,0.220706 -1.471375,0.220706 -1.246994,0.06988 -3.466937,-0.147131 -4.230214,1.066749 1.903596,0.251975 5.442261,0.011 6.069434,2.207069 -1.844738,-0.42854 -3.328993,0.09012 -4.9659,0.919611 0.125058,2.387311 -1.901758,1.967966 -3.494524,1.839223 0,0 -0.367846,0.919612 -0.367846,0.919612 0,0 0.183931,0 0.183931,0 0,0 0.367842,0.367845 0.367842,0.367845 1.712319,-1.024449 1.934865,-0.590391 3.678448,-0.251974 0.441413,0.08462 1.197333,0.04415 1.487931,0.439575 0.255651,0.347612 -0.07908,0.669475 -0.406469,0.755919 -0.338417,0.134269 -1.427235,0.02391 -1.817151,0 0,0 -0.183931,0.527859 -0.183931,0.527859 -1.123763,-0.647409 -2.36524,-0.960075 -3.678446,-0.908578 -0.623496,0.02391 -1.460341,0.40647 -0.919611,1.15687 0.478198,0.6658 2.32294,0.299794 3.12668,0.303475 2.523415,0.01289 2.918848,1.149512 4.438045,2.725725 0,0 1.77485,1.690249 1.77485,1.690249 0.717299,0.864434 0.518663,1.425398 1.16791,1.734387 0.776151,0.369683 1.612997,-0.945362 1.81531,-1.552305 0,0 1.287458,0.735689 1.287458,0.735689 0,0 0.480036,-1.624033 0.480036,-1.624033 0,0 0.748564,-1.320562 0.748564,-1.320562 0,0 0,-2.205227 0,-2.205227 0,0 -0.676834,-6.989051 -0.676834,-6.989051 0,0 0.367843,0.551767 0.367843,0.551767 0,0 0,-2.758831 0,-2.758831 0,0 -0.919609,-0.183931 -0.919609,-0.183931 0,0 -0.183931,0.735688 -0.183931,0.735688 -1.048357,-0.187598 -3.336349,0.01477 -3.678448,-1.103533 z m -8.460425,3.678448 c -1.708637,-0.693389 -0.776151,-1.00238 -1.425397,-1.739908 -0.549929,-0.623497 -2.026827,-1.002376 -2.804814,-0.835007 0.108506,1.15871 -0.434058,1.068591 -0.279563,1.84658 0.07541,0.386239 0.35313,0.787187 0.588552,1.096178 1.261704,1.646106 2.291672,1.576213 4.105144,2.023145 0,0 -1.103532,-0.735691 -1.103532,-0.735691 z m 2.574915,-1.655304 c -0.807422,0.456127 -0.724656,0.794545 -0.735691,1.655304 1.646103,0.240936 1.195497,-0.531538 0.735691,-1.655304 z m 3.494522,0.183928 c 0,0 -0.551767,0 -0.551767,0 0,0 0,0.735691 0,0.735691 0.148977,0.163685 0.790865,-0.47268 0.551767,-0.735691 z m -1.706798,0.183929 c 0.160011,-0.07909 0.603265,0 0.603265,0 0.200482,0.388078 -0.66212,0.509465 -0.735691,0.367848 0,0 -0.07173,-0.266689 0.132428,-0.367848 z m 12.558212,0.919613 v 0 0 0 m -24.82951,1.287454 c 0,0 -0.919611,-0.367844 -0.919611,-0.367844 0,0 0,1.103533 0,1.103533 0.649247,-0.1122 0.673154,-0.123237 0.919611,-0.735689 z m -3.494523,0.735689 c 0,0 -0.367845,0.735692 -0.367845,0.735692 0,0 0.919608,0 0.919608,0 z m 17.288698,7.72474 c 0,0 -3.12668,-1.887044 -3.12668,-1.887044 0,0 -0.919612,0.415666 -0.919612,0.415666 -1.08698,-0.800063 -2.563878,-0.154496 -2.942757,1.103532 0,0 0.551766,0.18393 0.551766,0.18393 -0.87363,0.448769 -1.020769,0.469001 -1.103536,1.471379 1.535754,-0.08462 1.633234,-0.59775 2.574914,-0.66028 0,0 0.919613,0 0.919613,0 0,0 1.103532,-0.119545 1.103532,-0.119545 1.269066,-0.102988 1.761978,0.253812 2.94276,-0.507625 z m -8.955179,-0.625337 c -0.770636,0.660281 -0.169202,1.68473 0.680514,1.353669 0.342094,-0.134272 1.149512,-0.732012 0.886505,-1.177103 -0.251976,-0.428539 -1.182621,-0.270368 -1.567019,-0.176566 z m 20.35836,-0.110352 c -0.391754,0.617981 -0.391754,0.8534 0,1.471378 z m -11.771027,2.758835 c -2.264086,-0.354968 -4.344247,0.715458 -6.621203,0.735688 0.603266,1.500808 2.885742,0.435898 4.046289,0.26301 0,0 1.47138,-0.194964 1.47138,-0.194964 0.658441,-0.14713 0.779831,-0.229904 1.103534,-0.803741 z m -1.471381,1.287456 c -2.304543,0.185756 -3.080695,0.730172 -5.149822,1.465861 -0.8534,0.303471 -0.800062,0.07541 -1.839222,0.557283 0,0 0,0.367845 0,0.367845 0,0 0.183928,0.183931 0.183928,0.183931 0,0 1.47138,-0.312671 1.47138,-0.312671 0,0 1.47138,-0.15082 1.47138,-0.15082 0,0 1.287456,-0.423022 1.287456,-0.423022 0,0 1.471376,-0.334737 1.471376,-0.334737 z m 0.183932,7.908659 c 0.446932,-0.814774 0.836847,-0.853398 1.246991,-1.502644 0.573839,-0.910417 0.395434,-1.418042 0.59407,-2.175802 0,0 0.459805,-1.655301 0.459805,-1.655301 0.09746,-0.421182 0.316345,-1.736223 0,-2.017628 -0.54073,-0.421182 -1.215722,0.132428 -1.601962,0.445092 -0.6566,0.531535 -1.603803,1.223084 -2.354204,1.590927 -0.744887,0.366008 -2.109589,0.923291 -2.497665,1.695764 -0.351294,0.702587 0.202305,1.184461 0.290599,2.332138 0.991339,0.213341 1.27274,0.434056 1.10353,1.471377 1.414363,0.691549 0.481879,-0.454288 2.758836,-0.183927 z m 5.149825,-7.172969 c 0,0 -0.551767,1.103534 -0.551767,1.103534 0.693387,-0.279562 0.711779,-0.3844 0.551767,-1.103534 z m 2.758834,0 c -0.588552,0.595907 -0.715458,0.932485 0,1.47138 z m -0.735689,1.655299 c -0.674994,0.130583 -0.755921,0.117725 -1.103536,0.73569 0,0 0.735691,0.18393 0.735691,0.18393 z m 7.908658,5.333748 c 0.989503,0.555447 2.048897,2.041539 2.852638,2.883905 0,0 1.346309,1.178939 1.346309,1.178939 1.342632,1.366543 2.832402,3.284853 4.445404,4.316656 1.223083,0.781671 2.681584,0.995023 4.046284,1.430917 0,0 9.380044,3.115644 9.380044,3.115644 0,0 4.414128,1.997396 4.414128,1.997396 0.424865,0.235422 1.213897,0.568319 1.467702,0.965597 0.228064,0.358639 0.187601,0.982142 0.187601,1.399645 0,0 0,15.449472 0,15.449472 0,0 -38.071913,0 -38.071913,0 0,0 1.95877,-3.119314 1.95877,-3.119314 0,0 -0.115864,-2.030503 -0.115864,-2.030503 0,0 1.098015,-3.310605 1.098015,-3.310605 0,0 -0.366006,-2.20707 -0.366006,-2.20707 0,0 2.023149,0.919614 2.023149,0.919614 0.01289,-4.509775 2.137174,-6.595456 4.026058,-10.299651 0.761437,-1.489773 1.020769,-3.051272 1.572536,-4.598059 0.470841,-1.320563 1.101696,-2.60802 1.121927,-4.046293 0.0202,-1.34631 -1.01893,-2.753314 -1.386775,-4.04629 z M 32.931718,51.54993 c 0,0 -0.91961,-0.183929 -0.91961,-0.183929 0,0 0.551765,0.735689 0.551765,0.735689 0,0 0.367845,-0.18393 0.367845,-0.18393 z M 19.505389,72.149231 v 0 0 0"
       style="fill:#000000;fill-opacity:0.35;stroke:#000000;stroke-width:0.180071;stroke-dasharray:none;stroke-opacity:0" /><path
       id="Selection #1"
       fill="none"
       stroke="#000000"
       stroke-width="3.1918"
       d="m -10.473951,83.357275 c 0,0 1.0446775,-5.333743 1.0446775,-5.333743 0,0 0.2740453,-2.758842 0.2740453,-2.758842 0,0 0.5425702,-1.839219 0.5425702,-1.839219 0.842364,-3.143233 1.7215136,-5.968281 4.75991,-7.660368 1.714156,-0.956393 2.345009,-0.917769 4.04629005,-1.368382 0,0 1.83922395,-0.584872 1.83922395,-0.584872 0,0 3.1266803,-0.765117 3.1266803,-0.765117 0,0 7.8571577,-2.563876 7.8571577,-2.563876 0,0 1.522876,-0.200481 1.522876,-0.200481 0,0 2.942758,-0.713621 2.942758,-0.713621 0.630854,-0.136095 1.671853,-0.235419 2.207067,-0.518658 0.888345,-0.472682 1.348152,-1.403328 1.945899,-2.16109 0.674993,-0.855237 1.29665,-1.278259 1.708639,-2.407542 0.774311,-2.127982 -1.278261,-2.560198 -2.392831,-4.614611 0,0 -1.749101,-3.110128 -1.749101,-3.110128 0,0 -2.065447,-6.069433 -2.065447,-6.069433 0,0 -1.042838,-3.126682 -1.042838,-3.126682 0,0 -0.290598,-2.207067 -0.290598,-2.207067 0,0 -0.623498,-3.678444 -0.623498,-3.678444 0,0 -0.562802,-2.023148 -0.562802,-2.023148 0,0 -0.496589,-2.758833 -0.496589,-2.758833 0,0 -0.630855,-2.942756 -0.630855,-2.942756 0,0 -0.437735,-5.149824 -0.437735,-5.149824 -0.08092,-1.098017 -0.399111,-1.357347 -0.343933,-2.758837 0,0 0.542572,-3.310602 0.542572,-3.310602 0.10116,-0.96927 -0.560964,-1.015252 -0.369688,-2.023144 0.156343,-0.8184563 0.757764,-1.403328 0.938005,-2.0231458 0.362326,-1.2451545 -1.379416,-2.0911959 -0.827649,-3.2315159 0.250134,-0.5204998 0.92145,-0.3770407 1.548624,-0.5646409 0.92513,-0.2777231 1.982685,-0.8865053 2.76619,-1.4474685 2.026826,-1.4493084 1.673695,-1.1090515 3.855014,-1.9201495 0.42302,-0.1563409 0.844204,-0.4064688 1.287457,-0.52417747 0.678673,-0.0754013 0.822132,0.18944687 1.839223,0 0,0 2.023146,-0.65660348 2.023146,-0.65660348 0.343934,-0.0938003 2.587784,-0.28324046 2.942756,-0.24461688 1.309527,0.14530561 1.596445,0.62349756 2.574914,1.00973363 0,0 2.574911,0.7504036 2.574911,0.7504036 0,0 1.839221,0.3034711 1.839221,0.3034711 0,0 1.47138,0.5241798 1.47138,0.5241798 0,0 0.903059,0.2207064 0.903059,0.2207064 0.533374,0.209671 0.643728,0.5186598 1.48977,0.8699522 0,0 1.469538,0.5664809 1.469538,0.5664809 1.42356,0.6860296 3.185536,2.0948748 4.037094,3.4246319 0,0 1.039161,1.6387489 1.039161,1.6387489 0.755922,0.961912 1.39597,1.223082 1.921991,2.591465 0,0 2.221781,10.115729 2.221781,10.115729 0.360487,0.853399 1.007892,1.096176 1.447469,1.839223 -1.912792,-0.08277 -1.511841,1.140317 -3.310601,1.287454 0,2.871028 -0.546252,1.495288 -0.551768,3.862368 0,0 0,5.701593 0,5.701593 0.01477,1.254349 0.09931,2.582268 0.73569,3.678447 0,0 0.367842,-2.574912 0.367842,-2.574912 0,0 0.919613,0.183928 0.919613,0.183928 0,0 0,0.367844 0,0.367844 -0.95088,0.816615 -0.917772,1.206532 -0.919613,2.390991 0,0 0,7.356892 0,7.356892 0,0.476359 -0.01477,1.007893 0.09746,1.471381 0.248293,1.029963 1.533912,2.554679 0.454288,4.414133 -0.0018,-3.457741 -0.892023,-3.040236 -0.91961,-5.333747 0,0 0,-4.598059 0,-4.598059 0,0 -0.595911,1.655303 -0.595911,1.655303 0,0 -1.39229,2.91149 -1.39229,2.91149 0,0 -4.04629,4.482187 -4.04629,4.482187 0,0 -2.058091,2.354203 -2.058091,2.354203 -1.239637,0.279562 -2.602502,1.412526 -3.869724,1.934865 -1.493451,0.617977 -4.95671,1.155031 -6.613848,1.191817 0,0 0.183928,1.471376 0.183928,1.471376 -1.670015,0.0607 -1.693925,-1.532071 -3.86237,-2.254886 -0.257487,-0.08643 -0.619818,-0.226224 -0.893861,-0.161858 -0.437736,0.10116 -0.586711,0.56648 -0.702582,0.94536 -0.351294,1.147677 0.213341,2.015788 0.49291,3.126678 0,0 1.495291,4.412296 1.495291,4.412296 0,0 1.727028,2.944594 1.727028,2.944594 0.139788,0.704423 -0.342095,1.178942 -0.248295,1.73256 0.108505,0.634525 0.733851,0.974783 0.888345,2.681584 1.695764,0.03678 1.899916,-0.702585 3.023684,-1.714159 0,0 1.407005,-0.983987 1.407005,-0.983987 0,0 3.461418,-1.997394 3.461418,-1.997394 1.086979,-0.779833 4.934637,-4.373673 5.889191,-5.420193 0,0 3.641661,-4.04629 3.641661,-4.04629 0.480039,-0.564641 1.383097,-1.848418 1.888884,-2.207067 -0.14346,1.272741 -1.007895,2.308227 -1.752781,3.310601 -1.668174,2.242013 -3.696838,4.175035 -5.788033,6.017938 0,0 -2.604342,2.313747 -2.604342,2.313747 -0.261168,0.259328 -0.698905,0.65108 -0.698905,1.048355 0.0018,0.849728 2.098555,1.938537 2.935402,2.942754 0,0 -4.230213,-0.735689 -4.230213,-0.735689 0.619818,-1.066751 0.801901,-0.595903 0.735689,-2.02314 -1.136639,0.102999 -2.396506,0.595903 -2.988736,1.655294 -0.571999,1.053882 0.678671,0.899387 0,2.390993 -0.774315,1.671863 -2.668714,3.637985 -4.184236,7.172969 -1.035481,2.416741 -1.158708,4.715766 -3.310601,3.862371 0.777992,-0.452449 0.97295,-1.033643 1.309528,-1.839224 0.228066,-0.549931 0.663959,-1.28562 0.71178,-1.839221 0.139787,-1.603804 -1.248832,-3.299567 -1.837385,-4.781981 0,0 0.551768,-0.183931 0.551768,-0.183931 0,0 -1.103535,-0.919615 -1.103535,-0.919615 0,0 0,0.735695 0,0.735695 -1.616677,-0.792704 -0.711778,-1.3739 -1.245154,-2.13166 -0.323703,-0.461643 -1.48977,-0.822136 -1.973487,-1.217565 -0.360487,-0.29244 -0.47084,-0.654766 -0.643727,-1.064917 0,0 -0.919612,0.183932 -0.919612,0.183932 0.720977,-0.871789 1.949577,-1.824505 3.12668,-1.918311 0.787188,-0.06069 1.717833,0.842369 1.863133,1.581738 0.08828,0.279564 0.02021,0.443248 0,0.704422 0,0 0.895702,1.103535 0.895702,1.103535 0,0 0.73569,-0.183926 0.73569,-0.183926 -0.01847,0.698905 0.05701,1.046515 -0.551769,1.471369 0,0 0.367846,0.919614 0.367846,0.919614 0.529693,-0.956389 1.136639,-2.0213 0.7081,-3.126678 -0.49843,-1.294811 -1.75278,-1.809797 -2.402026,-2.60802 -0.579356,-0.711783 -1.624033,-3.084376 -1.973485,-4.013186 -0.369685,-0.983982 -0.695226,-2.444327 -0.739367,-3.494524 -0.05885,-1.388612 0.439573,-1.77485 -0.375204,-2.942754 -0.617978,1.451145 -0.549927,2.33949 -0.551765,3.862366 -0.0035,1.844741 -0.172894,1.407007 -0.467163,2.942757 -0.689709,3.584653 -1.055716,4.862906 -3.216801,7.908661 -0.0091,-0.0053 0.251972,-0.03678 0.500269,-0.270364 0.595906,-0.56096 1.581733,-1.614836 1.896238,-1.384936 0,0 -0.183929,0.919614 -0.183929,0.919614 -1.055715,0.239095 -1.589089,1.252508 -2.27512,1.990036 0,0 -1.539428,1.379417 -1.539428,1.379417 -0.4782,0.62718 -1.072269,3.233359 -0.836847,3.987435 0.36049,1.151351 1.920147,2.203386 2.444328,4.414136 0,0 -2.758836,-1.655303 -2.758836,-1.655303 0,0 -0.551764,1.655303 -0.551764,1.655303 z M 46.541962,40.135529 c 0,0 0.687869,-1.945897 0.687869,-1.945897 0.11402,-0.757759 0.09012,-2.505019 0,-3.3106 0,0 0.356811,-3.38785 0.356811,-3.38785 0,0 -0.627175,-3.676607 -0.627175,-3.676607 0,0 -0.191272,-2.024984 -0.191272,-2.024984 0,0 -0.353129,-1.655302 -0.353129,-1.655302 -0.0202,-0.619819 0.277721,-0.925127 0.351292,-1.471376 0.220707,-1.620358 -0.700747,-2.569394 -1.519202,-3.809034 0,0 -1.368381,-2.644803 -1.368381,-2.644803 0,0 -0.537051,-1.638746 -0.537051,-1.638746 0,0 -1.693926,-2.942757 -1.693926,-2.942757 -0.616137,-1.015252 -1.061231,-1.8649731 -2.278797,-2.2456918 -0.505787,-0.1397877 -0.785348,-0.073578 -1.287458,0 -2.571234,0.3034704 -3.466932,1.6884068 -5.70159,2.4057028 0,0 -1.287455,0.351294 -1.287455,0.351294 0,0 -1.287457,0.645566 -1.287457,0.645566 0,0 -2.422258,0.976629 -2.422258,0.976629 0,0 -3.27198,0.60878 -3.27198,0.60878 -0.58487,0.202308 -0.825809,0.474521 -1.311363,0.80742 -1.585409,1.086981 -3.220481,2.372597 -3.683963,4.358958 -0.367845,1.579894 0.686028,3.908351 0.794546,4.598058 0.108504,0.695228 -0.206002,1.232281 -0.121392,2.015789 0.04967,0.461645 0.285079,0.869952 0.452447,1.294812 0,0 2.574914,0.551769 2.574914,0.551769 -0.40095,0.963751 -0.766956,1.302169 -1.839225,1.438272 -1.548621,0.194965 -2.876542,-0.526019 -2.758833,1.32056 0,0 2.574912,-0.704422 2.574912,-0.704422 2.05993,-0.222543 3.124842,0.724656 3.86237,-0.583031 1.703119,0.443254 1.933024,1.532071 1.986359,3.126678 0,0 0,3.126679 0,3.126679 -0.194962,1.647944 -0.526018,1.489771 -0.320024,3.862371 0.115866,1.346308 1.151353,1.335274 1.151353,2.390989 0,0.921449 -0.811097,1.212048 -1.530233,1.471377 0,0 0,0.367846 0,0.367846 0,0 1.839223,0.919609 1.839223,0.919609 0,0 -1.287455,0 -1.287455,0 0,0 0.183931,0.735692 0.183931,0.735692 1.01893,-0.233583 2.663193,-0.21519 3.678446,0 0,0 -2.335815,0.890183 -2.335815,0.890183 0,0 -1.158711,1.132963 -1.158711,1.132963 0,0 0.551768,1.655298 0.551768,1.655298 0,0 -0.919609,0.18393 -0.919609,0.18393 0.04231,0.520499 0.08828,1.31872 0.474516,1.706799 0.327383,0.329222 0.877311,0.366005 1.473218,0.954556 0.634534,0.627176 1.015251,1.4677 2.098556,1.644268 0.958232,0.154493 1.379416,-0.483717 2.758835,-0.259332 0.605106,-1.896241 3.202086,-0.4267 3.494522,-2.942758 0,0 1.287455,-0.183929 1.287455,-0.183929 -0.15634,-1.921987 -0.327381,-0.993181 0.384399,-2.758832 0,0 0.242777,-0.908577 0.242777,-0.908577 0.329223,-0.939844 0.969273,-0.54625 1.219404,0.356808 0,0 0.176564,0.735692 0.176564,0.735692 0,0 1.287457,-0.367846 1.287457,-0.367846 0.299794,1.132963 0.156343,1.993715 1.287456,2.574912 0,0 -0.367844,-0.735691 -0.367844,-0.735691 0,0 0.73569,-0.183928 0.73569,-0.183928 0,0 0,-1.655302 0,-1.655302 0.299792,-0.05334 0.513144,-0.03496 0.735688,-0.292434 0,0 0.483714,-1.072268 0.483714,-1.072268 0.748563,-1.403327 1.333439,-1.261707 1.171586,-2.497666 0.739368,-0.660282 -0.13427,-1.15871 0.919612,-1.839221 0,0 0.367844,-1.287457 0.367844,-1.287457 z M 31.460334,26.709202 c 0.831327,-0.452448 2.181318,-0.743045 3.126678,-0.693386 0,0 1.471377,0.141611 1.471377,0.141611 -0.814775,1.590929 -3.148748,1.344474 -4.598055,0.919613 z m 2.023143,1.839223 c 1.519201,-0.645567 3.775928,-1.041 4.965905,0.367845 0,0 -1.103535,-0.183931 -1.103535,-0.183931 -0.04415,0.264849 -0.03678,0.446934 -0.187599,0.695228 -0.316348,0.516821 -1.403329,0.985824 -1.956934,0.632691 -0.456129,-0.290597 -0.643728,-1.024443 -0.798223,-1.511839 z m 3.299569,0.367845 c 0.02759,0.360488 -0.719139,0.684191 -0.770636,0.011 z m -12.863527,2.207067 c 0,0 -0.91961,-0.367846 -0.91961,-0.367846 0,0 0,1.103535 0,1.103535 0.698905,0.0054 0.770633,0.104848 0.91961,-0.735689 z m 30.163257,0 c 0.573837,1.445628 -0.332899,3.400725 -1.475057,4.318494 -0.573836,0.463487 -1.096176,0.866276 -1.835544,0.647409 1.329757,-0.801901 2.387312,-1.581732 2.922525,-3.126679 z m -33.657782,0.735689 c -0.196789,-0.172894 -0.671315,0.470843 -0.367844,0.73569 0,0 0.919611,0 0.919611,0 z m 3.86237,0.18393 c 0,0 -2.591467,0.560962 -2.591467,0.560962 0,0 -2.006592,0.726493 -2.006592,0.726493 0,0 -0.343933,1.605643 -0.343933,1.605643 0,0 -1.311367,1.153194 -1.311367,1.153194 0.754081,0.49107 0.603266,1.000536 0.735688,1.839222 1.210209,-0.06255 1.539431,0.469003 1.655301,-0.919612 0,0 0.919612,-0.18393 0.919612,-0.18393 -0.349452,0.520501 -1.316883,1.63691 -1.486091,2.054414 -0.193119,0.583033 -0.01848,1.046518 0,1.624034 -0.01848,1.254351 -0.06437,2.047055 0.345773,3.310602 0.25749,0.794543 0.601424,1.01525 1.011574,1.655301 0.627172,0.980305 1.219401,2.026822 1.967967,0.18393 0.998697,0.533374 0.78351,1.011572 1.197336,1.228601 0.393591,0.206 0.836846,-0.150824 0.713617,-0.860759 -0.182083,-1.042837 -1.855775,-2.961146 -2.462718,-1.287454 -1.804279,-1.855774 1.226761,-2.495824 1.445625,-3.869724 0.134273,-0.83317 -0.621657,-1.120086 -0.632693,-1.699443 -0.011,-0.529698 0.759602,-1.280098 0.829493,-1.971646 0.0754,-0.761439 -0.577518,-1.177105 -0.674996,-2.023146 -0.06988,-0.625336 0.529697,-2.385473 0.687871,-3.126682 z m 24.829512,6.805125 c -0.391758,0.617979 -0.391758,0.8534 0,1.47138 z m 0,2.207066 c 0,0 -0.367846,0.735691 -0.367846,0.735691 z m -13.058487,2.390991 c 0.397274,-0.757759 0.833169,-1.070426 1.655303,-1.287456 -0.537051,0.822133 -0.776152,0.90306 -1.655303,1.287456 z m 15.08163,7.17297 c 0.989503,0.555447 2.048895,2.041539 2.852636,2.883903 0,0 1.346313,1.17894 1.346313,1.17894 1.342629,1.366544 2.832401,3.284854 4.445409,4.316658 1.223076,0.781669 2.681583,0.995021 4.046292,1.430916 0,0 9.380027,3.115643 9.380027,3.115643 0,0 4.414141,1.997398 4.414141,1.997398 0.424856,0.235419 1.213886,0.568319 1.467691,0.96559 0.228066,0.358648 0.187611,0.98215 0.187611,1.399653 0,0 0,15.449472 0,15.449472 0,0 -38.071923,0 -38.071923,0 0,0 1.958772,-3.119323 1.958772,-3.119323 0,0 -0.115865,-2.030501 -0.115865,-2.030501 0,0 1.098015,-3.310603 1.098015,-3.310603 0,0 -0.366005,-2.207064 -0.366005,-2.207064 0,0 2.023147,0.919605 2.023147,0.919605 0.01289,-4.509767 2.137175,-6.59545 4.026058,-10.299645 0.761437,-1.489774 1.020769,-3.051274 1.572536,-4.598061 0.470839,-1.320561 1.101693,-2.608017 1.121925,-4.046291 0.02021,-1.34631 -1.01893,-2.753315 -1.386775,-4.04629 z"
       style="fill:#000000;fill-opacity:1;stroke-width:0.180074;stroke-dasharray:none"
       inkscape:export-filename="sebastian-headshot-256.svg"
       inkscape:export-xdpi="95.699997"
       inkscape:export-ydpi="95.699997" /></g></svg>
