<?xml version="1.0" encoding="UTF-8" standalone="no"?>
<!-- Created with Inkscape (http://www.inkscape.org/) -->

<svg
   width="512"
   height="475.495"
   viewBox="0 0 135.46666 125.80805"
   version="1.1"
   id="svg1"
   xml:space="preserve"
   inkscape:version="1.3.2 (091e20e, 2023-11-25, custom)"
   sodipodi:docname="sebastian-headshot.svg"
   xmlns:inkscape="http://www.inkscape.org/namespaces/inkscape"
   xmlns:sodipodi="http://sodipodi.sourceforge.net/DTD/sodipodi-0.dtd"
   xmlns="http://www.w3.org/2000/svg"
   xmlns:svg="http://www.w3.org/2000/svg"><sodipodi:namedview
     id="namedview1"
     pagecolor="#505050"
     bordercolor="#eeeeee"
     borderopacity="1"
     inkscape:showpageshadow="0"
     inkscape:pageopacity="0"
     inkscape:pagecheckerboard="0"
     inkscape:deskcolor="#505050"
     inkscape:document-units="mm"
     inkscape:zoom="1.0343421"
     inkscape:cx="165.80588"
     inkscape:cy="256.68491"
     inkscape:window-width="1920"
     inkscape:window-height="1017"
     inkscape:window-x="-8"
     inkscape:window-y="-8"
     inkscape:window-maximized="1"
     inkscape:current-layer="layer1" /><defs
     id="defs1" /><g
     inkscape:label="Layer 1"
     inkscape:groupmode="layer"
     id="layer1"><path
       id="level-3"
       fill="none"
       stroke="#000000"
       stroke-width="3.1918"
       d="m 0.1647159,125.52625 c 0,0 1.5731611,-8.03199 1.5731611,-8.03199 0,0 0.4126803,-4.15449 0.4126803,-4.15449 0,0 0.8170471,-2.76965 0.8170471,-2.76965 1.2491118,-4.6558 2.4982283,-8.73826 6.890899,-11.374971 2.4760666,-1.487304 3.8193516,-1.545462 6.3702006,-2.221254 0,0 2.769655,-0.880751 2.769655,-0.880751 0,0 4.70841,-1.152182 4.70841,-1.152182 0,0 11.831959,-3.860894 11.831959,-3.860894 0,0 2.293272,-0.301905 2.293272,-0.301905 0,0 4.431448,-1.07463 4.431448,-1.07463 0.94999,-0.204936 2.517613,-0.354505 3.323583,-0.781038 1.33774,-0.711801 2.030157,-2.11324 2.930294,-3.254341 0.974916,-1.235268 1.767037,-1.728261 2.462221,-3.348508 1.379288,-3.218344 -1.708875,-4.389908 -3.204488,-6.724721 0,0 -1.130019,-2.138169 -1.130019,-2.138169 0,0 -1.791969,-3.046626 -1.791969,-3.046626 0,0 -3.910748,-11.355572 -3.910748,-11.355572 0,0 -2.146481,-11.355578 -2.146481,-11.355578 0,0 -0.847516,-3.046621 -0.847516,-3.046621 0,0 -0.747806,-4.154479 -0.747806,-4.154479 0,0 -0.949992,-4.431447 -0.949992,-4.431447 0,0 -0.659178,-7.755029 -0.659178,-7.755029 -0.121854,-1.653482 -0.601014,-2.044003 -0.517925,-4.154481 0,0 0.847516,-5.262342 0.847516,-5.262342 -0.0028,-1.146635 -0.853054,-1.370976 -0.587168,-2.769652 0.290813,-1.517769 1.667333,-2.586856 1.495613,-3.877516 -0.144032,-1.094014 -2.232341,-2.9552191 -1.215877,-4.2264908 0.40991,-0.5123869 1.343282,-0.4486829 1.941526,-0.589935 0.501308,-0.1191062 2.741958,-1.096784 3.207259,-1.3792879 3.763962,-2.2960431 1.899983,-2.013539 6.763493,-3.6614834 0,0 1.938758,-0.7644226 1.938758,-0.7644226 1.190953,-0.3074309 1.404215,0.1855774 3.046622,-0.1855774 0,0 3.046617,-0.92783431 3.046617,-0.92783431 0.517927,-0.14125198 3.896902,-0.42652671 4.431445,-0.36836417 1.971994,0.21881296 2.404058,0.93891368 3.877516,1.52053998 0,0 4.431444,1.2324946 4.431444,1.2324946 2.73642,0.4929978 2.010771,0.4320682 4.431448,1.143866 0,0 1.359899,0.3323615 1.359899,0.3323615 0,0 1.974762,1.199259 1.974762,1.199259 0,0 2.481609,0.9638406 2.481609,0.9638406 0.949994,0.4569916 3.899672,2.5591584 4.65856,3.3014247 1.196489,1.1660242 1.830738,2.7253392 2.791808,4.0603102 0,0 2.182489,2.506538 2.182489,2.506538 1.279586,1.816895 1.725489,4.985379 2.046777,7.198333 0,0 0.559463,2.492685 0.559463,2.492685 0,0 1.454075,6.647168 1.454075,6.647168 0.844743,2.611786 2.240648,2.210186 3.48145,4.157253 1.354363,2.129863 1.916605,6.602852 1.935988,9.137087 0.01664,2.401289 0.03049,4.713948 -1.719959,6.622241 -2.312654,2.517613 -4.107385,1.539925 -5.118311,3.362358 -0.418221,0.756118 -0.360064,1.645174 -0.362831,2.47884 0,0 0,11.078607 0,11.078607 0.0058,4.37606 1.329434,3.057706 1.384825,6.09324 0,0 0,1.384825 0,1.384825 -0.06929,5.73319 -6.120931,13.449444 -10.247712,17.09431 0,0 -6.292655,5.650092 -6.292655,5.650092 -0.57055,0.509609 -2.005229,1.675639 -2.005229,2.459439 0.0028,1.2796 3.160175,2.91922 4.420368,4.43146 0,0 -6.370203,-1.10786 -6.370203,-1.10786 0.933373,-1.6064 1.207568,-0.89737 1.10786,-3.04662 -1.711644,0.15509 -3.608859,0.89737 -4.500687,2.49269 -0.861361,1.58701 1.022001,1.35436 0,3.60054 -1.166025,2.51762 -4.018766,5.47838 -6.300962,10.80166 -1.559314,3.63932 -1.744881,7.10138 -4.985375,5.81626 1.171564,-0.68133 1.465148,-1.55654 1.971993,-2.76965 0.343438,-0.82813 0.999843,-1.93599 1.071857,-2.76965 0.210504,-2.41514 -1.880595,-4.96877 -2.766885,-7.20109 0,0 0.830895,-0.27698 0.830895,-0.27698 0,0 -1.661793,-1.38483 -1.661793,-1.38483 0,0 0,1.10787 0,1.10787 -2.434523,-1.19373 -1.071854,-2.06893 -1.875055,-3.21004 -0.487459,-0.69518 -2.243417,-1.23804 -2.971836,-1.8335 -0.542852,-0.44039 -0.709031,-0.98601 -0.969379,-1.60364 0,0 -1.384826,0.27698 -1.384826,0.27698 1.085704,-1.31282 2.935832,-2.74751 4.708411,-2.88875 1.185411,-0.0913 2.586854,1.2685 2.805658,2.38189 0.132943,0.421 0.03043,0.66749 0,1.06079 0,0 1.34882,1.66178 1.34882,1.66178 0,0 1.107863,-0.27697 1.107863,-0.27697 -0.02781,1.05246 0.08586,1.57594 -0.830898,2.21572 0,0 0.553932,1.38484 0.553932,1.38484 0.797658,-1.44023 1.711645,-3.04385 1.066316,-4.70842 -0.750576,-1.94983 -2.639481,-2.72534 -3.617168,-3.92736 -0.87244,-1.07187 -2.445604,-4.64472 -2.971838,-6.043391 -0.556699,-1.481771 -1.046927,-3.680876 -1.113398,-5.262346 -0.08862,-2.091091 0.661945,-2.672716 -0.565012,-4.431439 -0.930601,2.185257 -0.828126,3.522992 -0.830894,5.816263 -0.0055,2.777964 -0.260357,2.118786 -0.703493,4.431451 -1.03862,5.398062 -1.301737,7.046002 -4.55885,11.632542 0,0 3.323584,-2.21572 3.323584,-2.21572 0,0 -0.276975,1.38482 -0.276975,1.38482 -1.589782,0.36007 -2.392982,1.88614 -3.426061,2.99677 0,0 -2.318199,2.07724 -2.318199,2.07724 -0.720111,0.94445 -1.61471,4.86905 -1.260192,6.00461 0.542852,1.7338 2.891515,3.31805 3.680868,6.64716 0,0 -4.154482,-2.49268 -4.154482,-2.49268 0,0 -0.830894,2.49268 -0.830894,2.49268 z M 67.744259,42.990576 c -1.67287,0.470843 -1.130019,1.177103 -1.107863,2.49269 2.963529,0.869672 1.863978,-0.733958 1.107863,-2.49269 z m 5.162635,1.207572 c 0.171707,-0.22987 0.09971,-0.930606 0.09971,-0.930606 0,0 -0.830896,0 -0.830896,0 0,0 0,1.107864 0,1.107864 0,0 0.498535,0.135724 0.731189,-0.177269 z m -2.500998,-0.617633 c 0.246487,-0.124635 0.938913,-0.03602 0.938913,-0.03602 0.351745,0.598245 -0.916757,0.880751 -1.107863,0.553933 0,0 -0.132943,-0.368365 0.168959,-0.517927 z m -18.448661,3.287578 c 0,0 -1.384827,-0.553933 -1.384827,-0.553933 0,0 0,1.661793 0,1.661793 0.977688,-0.16896 1.013691,-0.185579 1.384827,-1.10786 z m -5.262343,1.10786 c 0,0 -0.553932,1.107863 -0.553932,1.107863 0,0 1.384826,0 1.384826,0 z M 69.95998,64.593866 c -3.470373,0.279733 -4.639167,1.099559 -7.755029,2.207418 -1.285118,0.456996 -1.204799,0.113502 -2.769652,0.839209 0,0 0,0.553929 0,0.553929 0,0 0.276976,0.276977 0.276976,0.276977 0,0 2.215724,-0.470844 2.215724,-0.470844 0,0 2.215724,-0.22712 2.215724,-0.22712 0,0 1.938758,-0.637028 1.938758,-0.637028 0,0 2.21572,-0.504073 2.21572,-0.504073 z m 22.988131,11.632552 c 1.490072,0.836429 3.085391,3.074309 4.29573,4.342818 0,0 2.027387,1.775338 2.027387,1.775338 2.021842,2.057861 4.265272,4.946605 6.694252,6.500381 1.84182,1.177109 4.03816,1.498385 6.09325,2.154794 0,0 14.12522,4.691789 14.12522,4.691789 0,0 6.64718,3.007851 6.64718,3.007851 0.63978,0.354516 1.82795,0.855823 2.21018,1.454061 0.34343,0.54008 0.28251,1.479 0.28251,2.10771 0,0 0,23.26509 0,23.26509 0,0 -57.331843,0 -57.331843,0 0,0 2.949679,-4.69733 2.949679,-4.69733 0,0 -0.174488,-3.0577 -0.174488,-3.0577 0,0 1.653482,-4.98537 1.653482,-4.98537 0,0 -0.551159,-3.32359 -0.551159,-3.32359 0,0 3.046621,1.38482 3.046621,1.38482 0.0193,-6.79118 3.218335,-9.93197 6.062771,-15.510058 1.146636,-2.243415 1.537161,-4.594856 2.368055,-6.924135 0.709033,-1.988611 1.659023,-3.927366 1.689485,-6.093241 0.03049,-2.027374 -1.534382,-4.14616 -2.088312,-6.093228 z M 45.310065,108.63136 v 0 0 0"
       style="fill:#000000;fill-opacity:0.15;stroke:#000000;stroke-width:0.271168;stroke-dasharray:none;stroke-opacity:0" /><path
       id="level-2"
       fill="none"
       stroke="#000000"
       stroke-width="3.1918"
       d="m 0.164716,125.54311 c 0,0 1.5731645,-8.03199 1.5731645,-8.03199 0,0 0.4126765,-4.15448 0.4126765,-4.15448 0,0 0.8170472,-2.76966 0.8170472,-2.76966 1.2491155,-4.65578 2.4982278,-8.73826 6.8908985,-11.374964 2.4760703,-1.487305 3.8193533,-1.545468 6.3702043,-2.221262 0,0 2.769653,-0.880751 2.769653,-0.880751 0,0 4.70841,-1.152177 4.70841,-1.152177 0,0 11.831962,-3.860896 11.831962,-3.860896 0,0 2.293271,-0.301902 2.293271,-0.301902 0,0 4.431446,-1.074628 4.431446,-1.074628 0.949992,-0.204941 2.517614,-0.354512 3.323585,-0.78104 1.33774,-0.711802 2.030157,-2.113245 2.930294,-3.254345 0.974916,-1.235265 1.767036,-1.728265 2.462219,-3.34851 1.337745,-3.124171 -1.495611,-4.276348 -3.04385,-6.48653 0,0 -1.290657,-2.376359 -1.290657,-2.376359 0,0 -1.65902,-2.769656 -1.65902,-2.769656 -1.190954,-2.384671 -1.933222,-5.220799 -2.755805,-7.75503 0,0 -2.057856,-6.370203 -2.057856,-6.370203 0,0 -0.437605,-3.323584 -0.437605,-3.323584 0,0 -0.938912,-5.539305 -0.938912,-5.539305 0,0 -0.847514,-3.046621 -0.847514,-3.046621 0,0 -0.747805,-4.154479 -0.747805,-4.154479 0,0 -0.949994,-4.431447 -0.949994,-4.431447 0,0 -0.659178,-7.755029 -0.659178,-7.755029 -0.121853,-1.653482 -0.601013,-2.044002 -0.517924,-4.154481 0,0 0.847516,-5.262342 0.847516,-5.262342 -0.0028,-1.146634 -0.853054,-1.370976 -0.587168,-2.769649 0.268665,-1.395906 1.487303,-2.467763 1.509462,-3.60055 0.02781,-1.387597 -2.080008,-2.789041 -1.343285,-4.3123518 0.354517,-0.7367285 1.346054,-0.6120943 2.055085,-0.7810439 0.501305,-0.1191057 2.741956,-1.0967807 3.207259,-1.3792846 3.763961,-2.2960427 1.899982,-2.0135385 6.763492,-3.6614833 0,0 1.93876,-0.764423 1.93876,-0.764423 1.19095,-0.3074308 1.404214,0.1855773 3.046619,-0.1855771 0,0 3.046618,-0.9278344 3.046618,-0.9278344 0,0 4.154479,-0.39329108 4.154479,-0.39329108 2.320971,0.13294312 3.05493,1.34881958 4.985376,1.79196438 0,0 3.046622,0.8835188 3.046622,0.8835188 0,0 2.769653,0.4569952 2.769653,0.4569952 0,0 2.215723,0.7893495 2.215723,0.7893495 0,0 1.359899,0.3323579 1.359899,0.3323579 0,0 1.974762,1.1992619 1.974762,1.1992619 0,0 2.204647,0.8392033 2.204647,0.8392033 1.074623,0.4680715 3.190637,1.9969205 4.151708,2.7585759 1.869519,1.4845333 2.154791,2.6090153 3.392825,4.4591423 1.055239,1.570393 2.044005,1.891674 3.027233,3.880283 0.750577,1.523311 1.373748,6.065542 1.827971,8.031998 0.484692,2.104935 0.985997,6.888125 2.196337,8.560996 0.498537,0.686872 1.03585,0.991537 1.744879,1.409755 0,0 -0.276973,0.830893 -0.276973,0.830893 1.298967,0.756118 1.387596,1.681183 1.778116,3.04662 1.099553,3.835969 1.024774,3.888595 0.99154,7.755031 0,0 0.553927,-0.276976 0.553927,-0.276976 -0.0028,3.522999 -1.243576,7.19556 -5.262343,7.755032 0.631482,-1.343285 0.728419,-1.548237 2.215725,-1.938757 0,0 0.553931,-3.60055 0.553931,-3.60055 -2.129862,0.072 -2.290505,0.875209 -2.952453,0.63702 -1.141094,-0.415452 0.01667,-2.049545 -0.321267,-2.888751 -0.396062,-0.983225 -1.664565,-1.442988 -2.542545,-1.902751 -0.279722,1.559317 -0.487458,5.425753 -0.168958,6.924133 0,0 0.722882,2.215725 0.722882,2.215725 0,0 1.938756,0.276975 1.938756,0.276975 0,0 0,0.553929 0,0.553929 -0.534543,0.459763 -0.864133,0.706263 -1.149407,1.390366 -0.39052,0.938914 -0.235431,4.583778 -0.235431,5.810733 0,0 0,7.478066 0,7.478066 0.0055,4.245878 1.276813,3.19895 1.379288,5.81627 0.08031,2.008001 -0.70626,4.506229 -1.933217,6.09324 0,0 -0.276977,-0.830897 -0.276977,-0.830897 0.855823,-0.479148 -0.642557,-2.766882 -1.107859,-3.323585 0,0 -0.204943,-2.492687 -0.204943,-2.492687 0,0 0.476383,-3.046616 0.476383,-3.046616 0.03601,-0.465306 0.02223,-1.398677 -0.42653,-1.686721 -0.695182,-0.445916 -2.188024,1.58424 -2.730878,2.052314 -2.633939,2.251725 -2.453912,2.431757 -4.603164,4.727799 -1.052469,1.124476 -2.600703,2.451139 -3.312505,3.769496 -2.138171,0.481922 -4.334508,2.548082 -6.647166,3.187873 -1.077398,0.299123 -4.497919,0.883517 -5.118319,1.639632 -0.880751,1.080167 0.681331,2.373593 1.249111,3.506383 0.365594,0.73119 0.63148,1.362669 -0.285285,1.636866 0,0 -1.384825,4.70841 -1.384825,4.70841 1.927676,0.329588 1.484533,1.246346 2.78073,1.717185 0.448683,0.163398 3.597779,-0.304652 4.143405,-0.487457 2.235107,-0.745036 1.617473,-2.595168 3.600547,-2.614553 0,0 1.938759,-1.107863 1.938759,-1.107863 0,0 -0.276977,-0.830894 -0.276977,-0.830894 2.129865,-0.299123 3.387285,-1.863979 4.849663,-3.29035 1.600859,-1.564854 5.071237,-4.722259 7.059848,-5.572544 -0.216031,1.916599 -1.517768,3.475916 -2.639479,4.985379 -2.512076,3.376206 -5.567007,6.287112 -8.716101,9.062305 0,0 -3.921829,3.484225 -3.921829,3.484225 -0.393292,0.39052 -1.052468,0.98045 -1.052468,1.57871 0.0028,1.27957 3.160176,2.91921 4.420366,4.43144 0,0 -6.3702,-1.10786 -6.3702,-1.10786 0.933371,-1.6064 1.207566,-0.89737 1.107859,-3.04661 -1.711645,0.15508 -3.608859,0.89736 -4.500687,2.49267 -0.861362,1.58702 1.022,1.35437 0,3.60056 -1.166025,2.51762 -4.018767,5.47838 -6.300963,10.80165 -1.559315,3.63932 -1.74488,7.10139 -4.985376,5.81626 1.171565,-0.68132 1.465148,-1.55653 1.971994,-2.76964 0.343437,-0.82813 0.999846,-1.93599 1.071856,-2.76965 0.210506,-2.41514 -1.880594,-4.96877 -2.766884,-7.20111 0,0 0.830894,-0.27697 0.830894,-0.27697 0,0 -1.661791,-1.38483 -1.661791,-1.38483 0,0 0,1.10786 0,1.10786 -2.434525,-1.19372 -1.071854,-2.06893 -1.875054,-3.21003 -0.48746,-0.69518 -2.24342,-1.23803 -2.971839,-1.83351 -0.542852,-0.44037 -0.709031,-0.98599 -0.969377,-1.60363 0,0 -1.384828,0.27698 -1.384828,0.27698 1.085706,-1.31281 2.935833,-2.74749 4.70841,-2.88875 1.185414,-0.0914 2.586856,1.2685 2.805659,2.38191 0.132943,0.42098 0.03042,0.66748 0,1.06078 0,0 1.34882,1.66178 1.34882,1.66178 0,0 1.107865,-0.27697 1.107865,-0.27697 -0.02781,1.05247 0.08586,1.57593 -0.830899,2.21572 0,0 0.553934,1.38483 0.553934,1.38483 0.797657,-1.44023 1.711645,-3.04386 1.066314,-4.70842 -0.750574,-1.94983 -2.63948,-2.72534 -3.617168,-3.92737 -0.872439,-1.07185 -2.445605,-4.644705 -2.971839,-6.043381 -0.556698,-1.481763 -1.046926,-3.680868 -1.113397,-5.262341 -0.08862,-2.091089 0.661946,-2.672717 -0.565011,-4.431445 -0.930602,2.185254 -0.828128,3.522999 -0.830894,5.81627 -0.0055,2.777965 -0.260359,2.118788 -0.703494,4.431447 -1.03862,5.39805 -1.301737,7.046 -4.55885,11.63255 0,0 3.323584,-2.21573 3.323584,-2.21573 0,0 -0.276973,1.38484 -0.276973,1.38484 -1.589783,0.36004 -2.392986,1.88613 -3.426065,2.99676 0,0 -2.318197,2.07724 -2.318197,2.07724 -0.720111,0.94445 -1.61471,4.86904 -1.260194,6.00461 0.542854,1.7338 2.891517,3.31804 3.680871,6.64717 0,0 -4.154481,-2.49269 -4.154481,-2.49269 0,0 -0.830895,2.49269 -0.830895,2.49269 z M 71.344812,27.774341 c -0.02486,-2.614553 -3.844279,-1.462378 -5.539307,-1.384827 0,0 -1.93876,2.215725 -1.93876,2.215725 0.479152,0.54285 1.495615,1.548233 1.653484,2.224033 0.23543,1.01092 -0.789352,1.891671 -1.379289,2.611779 -2.656097,3.232188 -3.586699,1.747654 -3.597779,5.134939 0,0 1.661794,0 1.661794,0 0,0 0.830894,-1.93876 0.830894,-1.93876 1.686719,1.467917 1.149408,1.055239 3.323585,1.384829 0,0 -0.553929,0.553931 -0.553929,0.553931 0,0 1.384825,-0.553931 1.384825,-0.553931 -0.163398,-0.725649 0.191106,-1.002615 0.841975,-1.343283 0,0 1.603628,-0.584397 1.603628,-0.584397 0,0 1.202031,-0.828126 1.202031,-0.828126 0,0 2.168639,-1.121708 2.168639,-1.121708 0,0 0.276976,0.276977 0.276976,0.276977 0,0 -0.276976,0.830896 -0.276976,0.830896 0,0 1.107862,-0.553931 1.107862,-0.553931 0,0 0.830895,0.830897 0.830895,0.830897 0,0 -0.830895,-1.938757 -0.830895,-1.938757 0,0 3.046616,-0.276976 3.046616,-0.276976 0,0 -0.553931,1.10786 -0.553931,1.10786 0.673028,0.191105 1.750422,0.576089 2.406831,0.204943 0.617632,-0.354517 1.274042,-2.254496 -1.022,-1.866748 -0.814279,-2.639479 -3.320819,-1.714411 -4.899521,-2.813967 -0.974917,-0.678563 -0.138471,-1.141094 -1.747648,-2.171408 z m 20.21847,11.078614 c -2.41791,0.889057 -1.891676,3.03277 -1.384827,4.985376 0.833666,-0.299121 0.778271,-0.288032 1.107862,-1.10786 2.14925,1.58978 1.226955,1.226957 3.877516,1.10786 -0.288035,-2.487148 -1.249117,-1.706108 -2.215725,-4.154481 0,0 -1.107859,0.276975 -1.107859,0.276975 z m -14.956132,1.10786 c 0,0 -2.215719,0.33236 -2.215719,0.33236 -1.877825,0.105235 -5.220799,-0.221564 -6.370206,1.606399 2.866593,0.379443 8.195405,0.01667 9.139856,3.323585 -2.777959,-0.645331 -5.013072,0.135722 -7.47806,1.384825 0.188324,3.59501 -2.863825,2.963528 -5.262344,2.769656 0,0 -0.553932,1.384826 -0.553932,1.384826 0,0 0.276977,0 0.276977,0 0,0 0.553929,0.553931 0.553929,0.553931 2.57855,-1.542699 2.913678,-0.88906 5.539307,-0.379443 0.664719,0.127414 1.803045,0.06647 2.240651,0.661949 0.384982,0.523462 -0.119105,1.00815 -0.612095,1.138325 -0.509616,0.202194 -2.149248,0.03601 -2.736416,0 0,0 -0.276977,0.794891 -0.276977,0.794891 -1.692257,-0.974919 -3.561776,-1.44576 -5.539306,-1.36821 -0.938912,0.03601 -2.199103,0.612096 -1.384826,1.74211 0.720108,1.002617 3.498071,0.451454 4.70841,0.456997 3.799965,0.01931 4.395442,1.731031 6.683175,4.104624 0,0 2.672714,2.545314 2.672714,2.545314 1.080168,1.301736 0.781045,2.146482 1.758734,2.611782 1.168793,0.5567 2.428984,-1.423602 2.733644,-2.337588 0,0 1.938759,1.107863 1.938759,1.107863 0,0 0.72288,-2.445605 0.72288,-2.445605 0,0 1.127249,-1.988611 1.127249,-1.988611 0,0 0,-3.320814 0,-3.320814 0,0 -1.019231,-10.524685 -1.019231,-10.524685 0,0 0.553928,0.830895 0.553928,0.830895 0,0 0,-4.154476 0,-4.154476 0,0 -1.384826,-0.276977 -1.384826,-0.276977 0,0 -0.276976,1.10786 -0.276976,1.10786 -1.578702,-0.282503 -5.024149,0.02224 -5.53931,-1.661791 z m -12.740405,5.53931 c -2.573007,-1.04416 -1.168793,-1.509463 -2.146481,-2.620094 -0.828126,-0.938914 -3.05216,-1.509462 -4.223719,-1.257422 0.163397,1.744879 -0.65364,1.60917 -0.420988,2.780731 0.113543,0.58163 0.531771,1.185411 0.886288,1.650716 1.899979,2.478839 3.45099,2.373591 6.181866,3.046619 0,0 -1.661791,-1.107865 -1.661791,-1.107865 z m 3.877517,-2.492691 c -1.21588,0.686874 -1.091245,1.196491 -1.107863,2.492691 2.478839,0.362822 1.800277,-0.800432 1.107863,-2.492691 z m 5.262341,0.276976 c 0,0 -0.830897,0 -0.830897,0 0,0 0,1.107863 0,1.107863 0.224342,0.246488 1.190951,-0.711803 0.830897,-1.107863 z m -2.570239,0.276974 c 0.24096,-0.119106 0.908448,0 0.908448,0 0.301902,0.584397 -0.997076,0.767194 -1.107863,0.553934 0,0 -0.108016,-0.4016 0.199415,-0.553934 z m 18.911193,1.384828 v 0 0 0 m -37.390322,1.938756 c 0,0 -1.384825,-0.553931 -1.384825,-0.553931 0,0 0,1.661791 0,1.661791 0.977689,-0.168958 1.013691,-0.185576 1.384825,-1.10786 z m -5.262341,1.10786 c 0,0 -0.553931,1.107865 -0.553931,1.107865 0,0 1.384825,0 1.384825,0 z m 26.034744,11.632548 c 0,0 -4.708413,-2.841665 -4.708413,-2.841665 0,0 -1.384826,0.625943 -1.384826,0.625943 -1.636865,-1.204799 -3.860896,-0.232652 -4.431444,1.66179 0,0 0.830894,0.276977 0.830894,0.276977 -1.315585,0.675794 -1.537159,0.70626 -1.661794,2.215723 2.312662,-0.127414 2.459456,-0.90014 3.877516,-0.994305 0,0 1.384828,0 1.384828,0 0,0 1.661791,-0.180016 1.661791,-0.180016 1.911065,-0.155089 2.65333,0.382211 4.431448,-0.764422 z M 59.244193,58.683694 c -1.160486,0.994305 -0.254798,2.537004 1.024774,2.038464 0.515154,-0.202196 1.731031,-1.102322 1.334973,-1.772576 -0.379445,-0.645331 -1.780887,-0.407142 -2.359747,-0.265886 z m 30.657296,-0.166181 c -0.589937,0.930606 -0.589937,1.285121 0,2.215725 z m -17.725783,4.154482 c -3.409445,-0.534542 -6.541923,1.077394 -9.970751,1.10786 0.908445,2.260039 4.345587,0.656411 6.093235,0.396062 0,0 2.215725,-0.293593 2.215725,-0.293593 0.991534,-0.22156 1.174331,-0.346208 1.661791,-1.21034 z m -2.215725,1.938757 c -3.470373,0.279725 -4.639167,1.099553 -7.755026,2.207413 -1.28512,0.456994 -1.2048,0.113544 -2.769653,0.839206 0,0 0,0.553931 0,0.553931 0,0 0.276976,0.276976 0.276976,0.276976 0,0 2.215722,-0.470842 2.215722,-0.470842 0,0 2.215725,-0.227123 2.215725,-0.227123 0,0 1.93876,-0.637019 1.93876,-0.637019 0,0 2.215718,-0.504074 2.215718,-0.504074 z m 0.276977,11.909511 c 0.673028,-1.226955 1.260194,-1.285118 1.877824,-2.262806 0.864135,-1.37098 0.595477,-2.135405 0.894601,-3.276502 0,0 0.69241,-2.492687 0.69241,-2.492687 0.146782,-0.634252 0.47638,-2.614551 0,-3.038311 -0.814277,-0.634251 -1.830736,0.199415 -2.412368,0.670257 -0.988761,0.800428 -2.415136,1.841819 -3.545153,2.395748 -1.121711,0.551163 -3.176793,1.390368 -3.76119,2.553622 -0.529005,1.058008 0.304649,1.783656 0.437606,3.511921 1.492842,0.321269 1.916599,0.65364 1.661791,2.215723 2.129864,1.041391 0.725651,-0.684103 4.154479,-0.276974 z m 7.755031,-10.801649 c 0,0 -0.830896,1.661791 -0.830896,1.661791 1.04416,-0.420986 1.071856,-0.57886 0.830896,-1.661791 z m 4.154479,0 c -0.886288,0.897368 -1.077394,1.404214 0,2.215723 z m -1.10786,2.492688 c -1.016462,0.196635 -1.138327,0.177271 -1.661794,1.107862 0,0 1.107863,0.276974 1.107863,0.276974 z m 11.909511,8.031995 c 1.490074,0.836436 3.085394,3.074316 4.295733,4.342819 0,0 2.027385,1.775345 2.027385,1.775345 2.021843,2.057853 4.265263,4.946601 6.694253,6.500378 1.84182,1.177102 4.03815,1.498385 6.09323,2.15479 0,0 14.12524,4.691793 14.12524,4.691793 0,0 6.64716,3.007842 6.64716,3.007842 0.6398,0.35452 1.82798,0.855825 2.21019,1.454076 0.34344,0.54007 0.2825,1.47899 0.2825,2.1077 0,0 0,23.26509 0,23.26509 0,0 -57.331821,0 -57.331821,0 0,0 2.949679,-4.69732 2.949679,-4.69732 0,0 -0.174488,-3.0577 -0.174488,-3.0577 0,0 1.653482,-4.98538 1.653482,-4.98538 0,0 -0.551159,-3.32359 -0.551159,-3.32359 0,0 3.046621,1.38483 3.046621,1.38483 0.01931,-6.79119 3.218334,-9.93198 6.06277,-15.510062 1.146637,-2.243422 1.537159,-4.594856 2.368054,-6.924135 0.709031,-1.988611 1.659024,-3.92737 1.68949,-6.093238 0.03042,-2.027388 -1.534388,-4.146171 -2.088319,-6.093238 z m -27.419571,1.384827 c 0,0 -1.384826,-0.276975 -1.384826,-0.276975 0,0 0.830895,1.107862 0.830895,1.107862 0,0 0.553931,-0.276977 0.553931,-0.276977 z M 45.310077,108.64825 v 0 0 0"
       style="fill:#000000;fill-opacity:0.35;stroke:#000000;stroke-width:0.271168;stroke-dasharray:none;stroke-opacity:0" /><path
       id="Selection #1"
       fill="none"
       stroke="#000000"
       stroke-width="3.1918"
       d="m 0.16471588,125.52625 c 0,0 1.57316112,-8.03199 1.57316112,-8.03199 0,0 0.4126798,-4.15449 0.4126798,-4.15449 0,0 0.8170472,-2.76965 0.8170472,-2.76965 1.268501,-4.73334 2.592397,-8.98753 7.167865,-11.53561 2.581317,-1.440218 3.531307,-1.382055 6.093235,-2.060621 0,0 2.769656,-0.880751 2.769656,-0.880751 0,0 4.70841,-1.152176 4.70841,-1.152176 0,0 11.831959,-3.860895 11.831959,-3.860895 0,0 2.293271,-0.301902 2.293271,-0.301902 0,0 4.431448,-1.074628 4.431448,-1.074628 0.94999,-0.204943 2.517613,-0.354514 3.323584,-0.78104 1.33774,-0.711803 2.030157,-2.113247 2.930294,-3.254346 1.016461,-1.287886 1.952604,-1.924907 2.573008,-3.625474 1.166022,-3.20449 -1.924911,-3.855359 -3.603321,-6.949061 0,0 -2.633942,-4.683486 -2.633942,-4.683486 0,0 -3.110319,-9.139854 -3.110319,-9.139854 0,0 -1.570393,-4.708414 -1.570393,-4.708414 0,0 -0.437607,-3.323585 -0.437607,-3.323585 0,0 -0.938911,-5.539304 -0.938911,-5.539304 0,0 -0.847515,-3.046621 -0.847515,-3.046621 0,0 -0.747806,-4.154479 -0.747806,-4.154479 0,0 -0.949993,-4.431447 -0.949993,-4.431447 0,0 -0.659177,-7.75503 -0.659177,-7.75503 -0.121854,-1.653483 -0.601015,-2.044003 -0.517925,-4.154481 0,0 0.81705,-4.985377 0.81705,-4.985377 0.152341,-1.459607 -0.844745,-1.528849 -0.556702,-3.046618 0.235431,-1.232498 1.141099,-2.113246 1.412524,-3.046619 0.545622,-1.875056 -2.07724,-3.149095 -1.246345,-4.8662826 0.376673,-0.7838115 1.387597,-0.567779 2.332048,-0.850283 1.393135,-0.418218 2.985689,-1.3349725 4.165558,-2.1797174 3.052161,-2.182488 2.520388,-1.6701009 5.805195,-2.8915189 0.637022,-0.235431 1.271272,-0.6120944 1.938758,-0.7893498 1.022003,-0.1135446 1.238036,0.2852847 2.769656,0 0,0 3.046618,-0.98876761 3.046618,-0.98876761 0.517925,-0.14125198 3.896901,-0.42652681 4.431444,-0.36836427 1.971994,0.21881317 2.404059,0.93891398 3.877516,1.52054008 0,0 3.877516,1.1300196 3.877516,1.1300196 0,0 2.769652,0.4569919 2.769652,0.4569919 0,0 2.215725,0.789353 2.215725,0.789353 0,0 1.359899,0.3323578 1.359899,0.3323578 0.803199,0.3157398 0.969379,0.7810407 2.243418,1.3100456 0,0 2.212952,0.8530538 2.212952,0.8530538 2.143714,1.0330798 4.797042,3.1546349 6.07939,5.1570928 0,0 1.564855,2.467763 1.564855,2.467763 1.138329,1.448527 2.102166,1.841818 2.89429,3.902443 0,0 3.345741,15.233095 3.345741,15.233095 0.542852,1.285119 1.517769,1.650713 2.179717,2.769653 -2.88044,-0.124635 -2.276654,1.717186 -4.985376,1.938757 0,4.323431 -0.822589,2.251731 -0.830898,5.816273 0,0 0,8.585927 0,8.585927 0.02224,1.888904 0.149561,3.888592 1.107863,5.539308 0,0 0.553929,-3.877515 0.553929,-3.877515 0,0 1.384829,0.276975 1.384829,0.276975 0,0 0,0.553928 0,0.553928 -1.431912,1.229727 -1.382059,1.816895 -1.384829,3.60055 0,0 0,11.078617 0,11.078617 0,0.71734 -0.02224,1.517768 0.14678,2.215723 0.373903,1.551005 2.30989,3.847048 0.684104,6.647168 -0.0028,-5.20695 -1.343281,-4.578237 -1.384825,-8.031997 0,0 0,-6.924135 0,-6.924135 0,0 -0.89737,2.492691 -0.89737,2.492691 0,0 -2.096627,4.384361 -2.096627,4.384361 0,0 -6.093238,6.749646 -6.093238,6.749646 0,0 -3.099241,3.545155 -3.099241,3.545155 -1.866749,0.420989 -3.919062,2.127096 -5.827351,2.913678 -2.24896,0.930603 -7.464218,1.739341 -9.959676,1.794736 0,0 0.276976,2.21572 0.276976,2.21572 -2.514846,0.0914 -2.550853,-2.307118 -5.816274,-3.395594 -0.387749,-0.130162 -0.933373,-0.340667 -1.346053,-0.24374 -0.659177,0.152342 -0.883518,0.853054 -1.058006,1.423604 -0.529004,1.728264 0.321269,3.035539 0.742266,4.70841 0,0 2.251732,6.644397 2.251732,6.644397 0,0 2.600702,4.434211 2.600702,4.434211 0.210504,1.06078 -0.515155,1.77535 -0.373903,2.60903 0.163399,0.95552 1.105093,1.46791 1.337743,4.03815 2.553621,0.0554 2.861051,-1.05801 4.553312,-2.58132 0,0 2.118784,-1.48177 2.118784,-1.48177 0,0 5.212488,-3.00784 5.212488,-3.00784 1.636865,-1.174333 7.43098,-6.586236 8.86843,-8.162171 0,0 5.483913,-6.093237 5.483913,-6.093237 0.722882,-0.850283 2.082781,-2.783502 2.844437,-3.323584 -0.216033,1.916598 -1.51777,3.475916 -2.639481,4.985376 -2.512075,3.376209 -5.567005,6.287113 -8.716098,9.062306 0,0 -3.921832,3.48423 -3.921832,3.48423 -0.393291,0.39052 -1.052468,0.98045 -1.052468,1.5787 0.0028,1.27959 3.160176,2.91921 4.420368,4.43144 0,0 -6.370203,-1.10786 -6.370203,-1.10786 0.933373,-1.6064 1.207568,-0.89736 1.107861,-3.04661 -1.711645,0.15509 -3.608859,0.89736 -4.500687,2.49268 -0.861363,1.58702 1.022,1.35437 0,3.60055 -1.166026,2.51763 -4.018768,5.47838 -6.300963,10.80165 -1.559314,3.63933 -1.744881,7.10139 -4.985376,5.81628 1.171564,-0.68134 1.465147,-1.55655 1.971993,-2.76966 0.343438,-0.82813 0.999845,-1.93599 1.071858,-2.76965 0.210503,-2.41514 -1.880595,-4.96876 -2.766886,-7.2011 0,0 0.830896,-0.27698 0.830896,-0.27698 0,0 -1.661793,-1.38483 -1.661793,-1.38483 0,0 0,1.10787 0,1.10787 -2.434524,-1.19372 -1.071854,-2.06893 -1.875054,-3.21003 -0.48746,-0.69518 -2.243418,-1.23804 -2.971838,-1.83351 -0.542852,-0.44038 -0.709031,-0.986 -0.969379,-1.60364 0,0 -1.384826,0.27698 -1.384826,0.27698 1.085705,-1.31281 2.935832,-2.74749 4.708411,-2.88875 1.185411,-0.0914 2.586855,1.26851 2.805659,2.38191 0.132943,0.42099 0.03042,0.66748 0,1.06078 0,0 1.34882,1.66179 1.34882,1.66179 0,0 1.107862,-0.27697 1.107862,-0.27697 -0.02781,1.05247 0.08586,1.57593 -0.830897,2.21571 0,0 0.553932,1.38483 0.553932,1.38483 0.797658,-1.44021 1.711645,-3.04384 1.066315,-4.70841 -0.750575,-1.94983 -2.63948,-2.72534 -3.617168,-3.92737 -0.872439,-1.07186 -2.445603,-4.644708 -2.971838,-6.043385 -0.556699,-1.481763 -1.046926,-3.680869 -1.113398,-5.262343 -0.08862,-2.091086 0.661945,-2.672716 -0.565011,-4.431444 -0.930602,2.185256 -0.828127,3.522999 -0.830894,5.81627 -0.0055,2.777965 -0.260359,2.118788 -0.703493,4.431448 -1.038622,5.398064 -1.589783,7.322964 -4.844124,11.909514 -0.01374,-0.008 0.37944,-0.0554 0.753346,-0.40714 0.897365,-0.84474 2.381903,-2.43175 2.855512,-2.08555 0,0 -0.276975,1.38483 -0.276975,1.38483 -1.589783,0.36005 -2.392982,1.88613 -3.426062,2.99676 0,0 -2.318199,2.07724 -2.318199,2.07724 -0.720111,0.94446 -1.614709,4.86906 -1.260192,6.00461 0.542852,1.7338 2.891516,3.31804 3.680868,6.64717 0,0 -4.154481,-2.49269 -4.154481,-2.49269 0,0 -0.830894,2.49269 -0.830894,2.49269 z M 86.023974,60.439387 c 0,0 1.03585,-2.930293 1.03585,-2.930293 0.171707,-1.141096 0.135724,-3.772267 0,-4.985376 0,0 0.537314,-5.101701 0.537314,-5.101701 0,0 -0.944452,-5.536537 -0.944452,-5.536537 0,0 -0.288033,-3.04939 -0.288033,-3.04939 0,0 -0.531773,-2.492689 -0.531773,-2.492689 -0.03042,-0.933373 0.418219,-1.393135 0.529006,-2.21572 0.332358,-2.440066 -1.055239,-3.869208 -2.287737,-5.735957 0,0 -2.060622,-3.982761 -2.060622,-3.982761 0,0 -0.808738,-2.46776 -0.808738,-2.46776 0,0 -2.550851,-4.431447 -2.550851,-4.431447 -0.927832,-1.528849 -1.598089,-2.808429 -3.431601,-3.381747 -0.761656,-0.210504 -1.182641,-0.110796 -1.938758,0 -3.871975,0.456992 -5.220794,2.542544 -8.585927,3.622706 0,0 -1.938754,0.529005 -1.938754,0.529005 0,0 -1.938758,0.97215 -1.938758,0.97215 0,0 -3.647636,1.470686 -3.647636,1.470686 0,0 -4.927214,0.916754 -4.927214,0.916754 -0.880748,0.304651 -1.243574,0.71457 -1.974761,1.215877 -2.387441,1.636866 -4.849666,3.572853 -5.547617,6.564079 -0.553932,2.379132 1.03308,5.885517 1.196491,6.924135 0.163399,1.046931 -0.310212,1.855669 -0.182797,3.035541 0.07479,0.695184 0.429295,1.310047 0.681334,1.949836 0,0 3.877516,0.830897 3.877516,0.830897 -0.603786,1.451297 -1.154947,1.960914 -2.769656,2.16587 -2.332045,0.293593 -4.331737,-0.792124 -4.154478,1.988608 0,0 3.877515,-1.060777 3.877515,-1.060777 3.102011,-0.335125 4.70564,1.091246 5.816271,-0.877977 2.5647,0.667486 2.910908,2.307119 2.991226,4.708409 0,0 0,4.708411 0,4.708411 -0.293593,2.48161 -0.79212,2.243419 -0.481918,5.816274 0.174488,2.027385 1.733801,2.010768 1.733801,3.60055 0,1.387594 -1.221417,1.8252 -2.304351,2.215721 0,0 0,0.553932 0,0.553932 0,0 2.769652,1.384826 2.769652,1.384826 0,0 -1.938754,0 -1.938754,0 0,0 0.276975,1.107863 0.276975,1.107863 1.534391,-0.351747 4.010459,-0.324049 5.539309,0 0,0 -3.517462,1.340511 -3.517462,1.340511 0,0 -1.744881,1.706107 -1.744881,1.706107 0,0 0.830898,2.492687 0.830898,2.492687 0,0 -1.384826,0.276976 -1.384826,0.276976 0.06369,0.783811 0.132943,1.98584 0.714569,2.570237 0.492998,0.49577 1.321125,0.551162 2.218492,1.437451 0.955532,0.944452 1.528848,2.210185 3.160175,2.476072 1.442989,0.23265 2.077239,-0.72842 4.154482,-0.390521 0.911216,-2.855516 4.821964,-0.642562 5.262342,-4.431448 0,0 1.938755,-0.276975 1.938755,-0.276975 -0.235431,-2.894286 -0.492998,-1.495614 0.578858,-4.154479 0,0 0.365594,-1.368208 0.365594,-1.368208 0.49577,-1.415294 1.45961,-0.822589 1.83628,0.53731 0,0 0.265886,1.107864 0.265886,1.107864 0,0 1.938758,-0.553932 1.938758,-0.553932 0.451451,1.706108 0.235431,3.002303 1.938755,3.877516 0,0 -0.553929,-1.107863 -0.553929,-1.107863 0,0 1.107861,-0.276976 1.107861,-0.276976 0,0 0,-2.492687 0,-2.492687 0.451453,-0.08031 0.772735,-0.05264 1.107859,-0.440373 0,0 0.72842,-1.61471 0.72842,-1.61471 1.127249,-2.113245 2.008001,-1.899983 1.764271,-3.761191 1.113401,-0.994305 -0.202195,-1.744881 1.384826,-2.769651 0,0 0.553932,-1.938758 0.553932,-1.938758 z M 63.312813,40.220917 c 1.251883,-0.681334 3.284811,-1.11894 4.708411,-1.044159 0,0 2.215723,0.213251 2.215723,0.213251 -1.226955,2.395753 -4.741645,2.024618 -6.924134,1.384829 z m 3.046619,2.769652 c 2.287736,-0.972146 5.686101,-1.567623 7.478065,0.553932 0,0 -1.661791,-0.276975 -1.661791,-0.276975 -0.06648,0.398828 -0.05539,0.673026 -0.282504,1.04693 -0.476381,0.778272 -2.113247,1.484533 -2.946911,0.95276 -0.686875,-0.437606 -0.969379,-1.542695 -1.20203,-2.276657 z m 4.968761,0.553932 c 0.04155,0.542852 -1.082937,1.030312 -1.160488,0.01669 z m -19.370958,3.323584 c 0,0 -1.384826,-0.553932 -1.384826,-0.553932 0,0 0,1.661793 0,1.661793 1.052468,0.0082 1.160484,0.157869 1.384826,-1.107861 z m 45.422317,0 c 0.864133,2.176947 -0.501307,5.12109 -2.221262,6.503146 -0.86413,0.697954 -1.650712,1.304507 -2.764114,0.97492 2.002458,-1.207571 3.595012,-2.381903 4.400979,-4.708411 z m -50.68466,1.107861 c -0.296341,-0.260359 -1.010923,0.709034 -0.553931,1.107862 0,0 1.384827,0 1.384827,0 z m 5.816275,0.276975 c 0,0 -3.902443,0.844745 -3.902443,0.844745 0,0 -3.021692,1.094013 -3.021692,1.094013 0,0 -0.517925,2.417909 -0.517925,2.417909 0,0 -1.974765,1.736573 -1.974765,1.736573 1.135559,0.739495 0.908447,1.506689 1.107861,2.769652 1.822433,-0.09418 2.318202,0.706264 2.492689,-1.384826 0,0 1.384826,-0.276976 1.384826,-0.276976 -0.526233,0.783812 -1.98307,2.464993 -2.237879,3.093705 -0.290813,0.87798 -0.02781,1.575931 0,2.445603 -0.02781,1.888904 -0.09692,3.082625 0.520696,4.985377 0.387749,1.196491 0.905675,1.528848 1.523308,2.492689 0.944451,1.476225 1.836279,3.052156 2.963531,0.276976 1.503919,0.803199 1.179871,1.523311 1.803045,1.85013 0.592705,0.310211 1.260192,-0.227122 1.074624,-1.296199 -0.274196,-1.570393 -2.794579,-4.459141 -3.708566,-1.938758 -2.717031,-2.794579 1.84736,-3.758419 2.176947,-5.827349 0.202195,-1.254655 -0.936144,-1.686719 -0.952762,-2.559162 -0.01669,-0.797659 1.143867,-1.927678 1.249116,-2.969067 0.113544,-1.146637 -0.869672,-1.772579 -1.016462,-3.046618 -0.105236,-0.941685 0.797659,-3.592241 1.035851,-4.708417 z m 37.390322,10.247718 c -0.589938,0.930605 -0.589938,1.28512 0,2.215724 z m 0,3.323584 c 0,0 -0.553932,1.107864 -0.553932,1.107864 z m -19.664542,3.60055 c 0.598247,-1.141096 1.254654,-1.611938 2.492691,-1.938757 -0.808739,1.238036 -1.168795,1.359902 -2.492691,1.938757 z m 22.71116,10.80165 c 1.490075,0.836436 3.085396,3.074317 4.295734,4.342817 0,0 2.027387,1.775346 2.027387,1.775346 2.021842,2.057855 4.265262,4.946603 6.694262,6.500379 1.84181,1.177102 4.03815,1.498384 6.09324,2.15479 0,0 14.12522,4.691792 14.12522,4.691792 0,0 6.64718,3.007845 6.64718,3.007845 0.63978,0.354517 1.82796,0.855825 2.21017,1.454068 0.34344,0.54008 0.28252,1.479 0.28252,2.10771 0,0 0,23.26509 0,23.26509 0,0 -57.331841,0 -57.331841,0 0,0 2.949678,-4.69733 2.949678,-4.69733 0,0 -0.174488,-3.0577 -0.174488,-3.0577 0,0 1.653483,-4.98538 1.653483,-4.98538 0,0 -0.55116,-3.32358 -0.55116,-3.32358 0,0 3.046621,1.38482 3.046621,1.38482 0.0193,-6.79118 3.218336,-9.93197 6.062771,-15.510056 1.146635,-2.243421 1.537159,-4.594857 2.368053,-6.924135 0.709031,-1.988611 1.659024,-3.927369 1.689489,-6.093239 0.03042,-2.027385 -1.534387,-4.14617 -2.088319,-6.093237 z"
       style="fill:#000000;fill-opacity:1;stroke-width:0.271168;stroke-dasharray:none" /></g></svg>
