<?xml version="1.0" encoding="UTF-8" standalone="no"?>
<!-- Created with Inkscape (http://www.inkscape.org/) -->

<svg
   width="255.99998"
   height="87.503105"
   viewBox="0 0 67.733331 23.151864"
   version="1.1"
   id="svg1"
   xml:space="preserve"
   xmlns:xlink="http://www.w3.org/1999/xlink"
   xmlns="http://www.w3.org/2000/svg"
   xmlns:svg="http://www.w3.org/2000/svg"><defs
     id="defs1"><linearGradient
       id="linearGradient3"><stop
         style="stop-color:#86a7ff;stop-opacity:1;"
         offset="0"
         id="stop4" /><stop
         style="stop-color:#00a7ff;stop-opacity:1;"
         offset="0.32673267"
         id="stop3" /></linearGradient><linearGradient
       xlink:href="#linearGradient3"
       id="linearGradient4"
       x1="-23.443855"
       y1="25.579866"
       x2="57.209286"
       y2="25.579866"
       gradientUnits="userSpaceOnUse"
       gradientTransform="matrix(0.83981018,0,0,0.83981018,19.68839,-9.9062973)" /></defs><g
     id="layer1"><path
       id="L2-path"
       fill="none"
       stroke="#000000"
       stroke-width="0.839807"
       d="m 19.602714,14.438898 c 0,0 -0.03556,0.337744 -0.05333,2.64862 -1.724982,1.03314 -7.554789,4.475279 -9.5634749,5.581655 C 7.4119509,21.166748 2.0869797,18.024667 0.42954797,17.044856 0.40466297,13.425668 0.43525797,8.9055928 0.44021297,5.9775351 4.084287,3.8799695 6.7080214,2.4194961 10.003686,0.48475895 c 3.324108,1.88425265 7.802942,4.47030195 9.581251,5.49277615 -7e-4,1.4839375 0.01778,2.7019477 0.01778,2.7019477 0,0 5.604408,0.00639 6.987381,0.019196 1.01323,0.7281046 1.638943,1.2478742 2.954365,2.1722252 1.660987,-1.1767704 2.999162,-2.1786244 2.999162,-2.1786244 1.434877,-0.019191 1.40999,-0.012792 1.99091,-0.012792 0,0 -3.999595,2.9152594 -3.999595,2.9152594 0,0 3.92849,2.844156 3.92849,2.844156 -0.484928,0 -0.413825,-0.0128 -1.97171,-0.01919 0,0 -1.783997,-1.360929 -2.921659,-2.178623 -1.395768,1.008252 -2.947256,2.191421 -2.947256,2.191421 -1.486782,0.0128 -1.411411,0.0021 -1.956067,0.0021 1.0886,-0.799918 1.975265,-1.471138 3.966175,-2.857665 0,0 -4.059323,-2.8718854 -4.059323,-2.8718854 0,0 0.0064,1.1120646 0.0064,1.1120646 0,0 -4.977271,0 -4.977271,0 0,0 0,0.6399348 0,0.6399348 0,0 3.83961,0 3.83961,0 0,0 0,1.137662 0,1.137662 0,0 -3.83961,0 -3.83961,0 0,0 0,1.706494 0,1.706494 0,0 4.977271,0 4.977271,0 0,0 0,1.137662 0,1.137662 z M 6.1640777,6.9729889 c 0,0 -1.8487012,0 -1.8487012,0 0,0 0,9.1724021 0,9.1724021 0,0 1.8487012,0 1.8487012,0 0,0 0,-4.550649 0,-4.550649 0,0 7.6792203,0 7.6792203,0 0,0 0,4.550649 0,4.550649 0,0 1.848701,0 1.848701,0 0,0 0,-9.1724021 0,-9.1724021 0,0 -1.848701,0 -1.848701,0 0,0 0,2.844156 0,2.844156 0,0 -7.6792203,0 -7.6792203,0 z M 42.65033,14.438898 c 0,0 -0.01564,-5.347724 0,-5.4735782 0.255264,-0.8226721 1.218722,-0.042655 1.554332,0.2261109 0,0 4.408443,3.4698693 4.408443,3.4698693 0,0 0,-3.9818172 0,-3.9818172 0,0 1.208764,0 1.208764,0 0,0 0,4.7639612 0,4.7639612 -7.51e-4,0.5411 -0.08461,1.297645 -0.853245,1.006831 -0.317124,-0.120166 -5.190585,-3.993195 -5.190585,-3.993195 0,0 0,3.981818 0,3.981818 z M 36.570947,8.6986805 c 0,0 3.399478,-0.012792 3.399478,-0.012792 0.931462,0.1166114 1.179615,0.1934034 1.848701,0.9051529 0.0391,0.6982406 0.0135,3.4776916 0.0135,3.4776916 -0.01634,1.140507 -1.266359,1.36875 -2.178622,1.370172 -0.962038,0.0015 -1.8679,-0.01279 -3.134972,-0.0256 -0.943548,-0.168516 -1.654588,-0.401027 -1.771198,-1.306179 0,0 -0.0128,-2.986363 0.07751,-3.555195 0.374718,-0.5297234 1.072958,-0.7622331 1.7456,-0.853247 z m 14.03306,-0.019196 c 0,0 1.208773,0 1.208773,0 0,0 0,5.7594145 0,5.7594145 0,0 -1.208773,0 -1.208773,0 z m 1.990917,0 c 0,0 7.181493,0 7.181493,0 0,0 0,1.1376621 0,1.1376621 0,0 -2.986365,0 -2.986365,0 0,0 0,4.6217524 0,4.6217524 0,0 -1.208764,0 -1.208764,0 0,0 0,-4.6217524 0,-4.6217524 0,0 -2.986364,0 -2.986364,0 z m 7.537011,0 c 0,0 7.181498,0 7.181498,0 0,0 0,1.1376621 0,1.1376621 0,0 -5.97273,0 -5.97273,0 0,0 0,0.6399344 0,0.6399344 0,0 4.835063,0 4.835063,0 0,0 0,1.137663 0,1.137663 0,0 -4.835063,0 -4.835063,0 0,0 0,1.706493 0,1.706493 0,0 5.97273,0 5.97273,0 0,0 0,1.137662 0,1.137662 0,0 -7.181498,0 -7.181498,0 z M 37.094272,9.8526987 c -0.278015,0.024885 -0.831915,0.02631 -1.023895,0.2275323 -0.117322,0.123009 -0.110213,0.290104 -0.113768,0.447954 0,0 0,1.919806 0,1.919806 7.51e-4,0.264506 -0.04052,0.521191 0.223978,0.67051 0.20549,0.116609 0.579498,0.114476 0.822673,0.154294 0,0 2.467305,0 2.467305,0 0.270907,-0.01067 0.811294,-0.04621 1.026029,-0.191269 0.258818,-0.173493 0.223266,-0.429467 0.223979,-0.704639 0,0 0,-1.63539 0,-1.63539 -0.0015,-0.234643 0.01707,-0.488484 -0.172784,-0.661266 -0.230377,-0.2097574 -0.606517,-0.1777601 -0.893777,-0.2275323 -0.597273,-0.056175 -1.961045,-0.071107 -2.55974,0 z"
       style="fill:url(#linearGradient4);stroke:#000000;stroke-opacity:0" /></g></svg>
