<?xml version="1.0" encoding="UTF-8" standalone="no"?>
<!-- Created with Inkscape (http://www.inkscape.org/) -->

<svg
   width="512"
   height="175.00641"
   viewBox="0 0 135.46667 46.303778"
   version="1.1"
   id="svg1"
   xml:space="preserve"
   inkscape:version="1.3.2 (091e20e, 2023-11-25, custom)"
   sodipodi:docname="logo-hexonite-2.svg"
   xmlns:inkscape="http://www.inkscape.org/namespaces/inkscape"
   xmlns:sodipodi="http://sodipodi.sourceforge.net/DTD/sodipodi-0.dtd"
   xmlns:xlink="http://www.w3.org/1999/xlink"
   xmlns="http://www.w3.org/2000/svg"
   xmlns:svg="http://www.w3.org/2000/svg"><sodipodi:namedview
     id="namedview1"
     pagecolor="#505050"
     bordercolor="#eeeeee"
     borderopacity="1"
     inkscape:showpageshadow="0"
     inkscape:pageopacity="0"
     inkscape:pagecheckerboard="0"
     inkscape:deskcolor="#505050"
     inkscape:document-units="mm"
     inkscape:zoom="0.51717104"
     inkscape:cx="894.28829"
     inkscape:cy="378.01808"
     inkscape:window-width="1920"
     inkscape:window-height="1017"
     inkscape:window-x="-8"
     inkscape:window-y="-8"
     inkscape:window-maximized="1"
     inkscape:current-layer="layer1" /><defs
     id="defs1"><linearGradient
       id="linearGradient1"
       inkscape:collect="always"><stop
         style="stop-color:#86a7ff;stop-opacity:1;"
         offset="0"
         id="stop2" /><stop
         style="stop-color:#00a7ff;stop-opacity:1;"
         offset="0.25415677"
         id="stop1" /></linearGradient><linearGradient
       inkscape:collect="always"
       xlink:href="#linearGradient1"
       id="linearGradient2"
       x1="213.93736"
       y1="51.671333"
       x2="294.59045"
       y2="51.671333"
       gradientUnits="userSpaceOnUse"
       gradientTransform="matrix(1.6796214,0,0,1.6796214,-359.33382,-63.636394)" /></defs><g
     inkscape:label="Layer 1"
     inkscape:groupmode="layer"
     id="layer1"><path
       id="L2-path"
       fill="none"
       stroke="#000000"
       stroke-width="1.67963"
       d="m 39.205356,28.877815 c 0,0 -0.07105,0.675486 -0.106654,5.29724 -3.449959,2.066281 -15.10959,8.950567 -19.126958,11.163322 C 14.823819,42.333524 4.1738795,36.049357 0.85900831,34.089735 0.80930093,26.851351 0.8707823,17.811197 0.88033378,11.955077 8.1684774,7.7599438 13.415955,4.8389948 20.007293,0.96951837 26.655501,4.7380259 35.613177,9.9101278 39.169812,11.955077 c -0.0016,2.967878 0.0356,5.403896 0.0356,5.403896 0,0 11.20882,0.01275 13.974772,0.0384 2.026464,1.456211 3.27788,2.495748 5.908722,4.344454 3.321992,-2.353542 5.998332,-4.357252 5.998332,-4.357252 2.86977,-0.0384 2.819988,-0.02561 3.981829,-0.02561 0,0 -7.999194,5.830524 -7.999194,5.830524 0,0 7.856983,5.688318 7.856983,5.688318 -0.969848,0 -0.82765,-0.02558 -3.943414,-0.0384 0,0 -3.568007,-2.721859 -5.843341,-4.35725 -2.791527,2.016508 -5.894514,4.382848 -5.894514,4.382848 -2.973566,0.02558 -2.822822,0.0042 -3.912138,0.0042 2.177208,-1.599838 3.950534,-2.942281 7.932363,-5.715337 0,0 -8.118651,-5.743775 -8.118651,-5.743775 0,0 0.01344,2.224132 0.01344,2.224132 0,0 -9.954541,0 -9.954541,0 0,0 0,1.279868 0,1.279868 0,0 7.679207,0 7.679207,0 0,0 0,2.275327 0,2.275327 0,0 -7.679207,0 -7.679207,0 0,0 0,3.412989 0,3.412989 0,0 9.954541,0 9.954541,0 0,0 0,2.275329 0,2.275329 z M 12.328073,13.945986 c 0,0 -3.6974019,0 -3.6974019,0 0,0 0,18.344819 0,18.344819 0,0 3.6974019,0 3.6974019,0 0,0 0,-9.101308 0,-9.101308 0,0 15.358461,0 15.358461,0 0,0 0,9.101308 0,9.101308 0,0 3.697399,0 3.697399,0 0,0 0,-18.344819 0,-18.344819 0,0 -3.697399,0 -3.697399,0 0,0 0,5.688314 0,5.688314 0,0 -15.358461,0 -15.358461,0 z M 85.30062,28.877815 c 0,0 -0.03125,-10.695454 0,-10.947163 0.510539,-1.645346 2.437451,-0.08533 3.108673,0.452219 0,0 8.816894,6.939747 8.816894,6.939747 0,0 0,-7.963645 0,-7.963645 0,0 2.417527,0 2.417527,0 0,0 0,9.527928 0,9.527928 -0.0016,1.082204 -0.169222,2.595295 -1.706497,2.013666 -0.63424,-0.240332 -10.381167,-7.986396 -10.381167,-7.986396 0,0 0,7.963644 0,7.963644 z M 73.141855,17.39737 c 0,0 6.798957,-0.02559 6.798957,-0.02559 1.862919,0.233223 2.359234,0.386809 3.697401,1.81031 0.07827,1.396482 0.02705,6.955384 0.02705,6.955384 -0.03277,2.281014 -2.532719,2.737504 -4.357239,2.740348 -1.924073,0.0028 -3.735817,-0.02558 -6.269962,-0.05119 -1.887086,-0.337035 -3.309172,-0.802057 -3.542389,-2.612361 0,0 -0.02553,-5.97273 0.155032,-7.110393 0.749426,-1.059447 2.145914,-1.524469 3.491206,-1.706495 z m 28.066135,-0.03839 c 0,0 2.41755,0 2.41755,0 0,0 0,11.518839 0,11.518839 0,0 -2.41755,0 -2.41755,0 z m 3.98183,0 c 0,0 14.363,0 14.363,0 0,0 0,2.275326 0,2.275326 0,0 -5.97274,0 -5.97274,0 0,0 0,9.243513 0,9.243513 0,0 -2.41752,0 -2.41752,0 0,0 0,-9.243513 0,-9.243513 0,0 -5.97274,0 -5.97274,0 z m 15.07404,0 c 0,0 14.36299,0 14.36299,0 0,0 0,2.275326 0,2.275326 0,0 -11.94547,0 -11.94547,0 0,0 0,1.279871 0,1.279871 0,0 9.67014,0 9.67014,0 0,0 0,2.275327 0,2.275327 0,0 -9.67014,0 -9.67014,0 0,0 0,3.412986 0,3.412986 0,0 11.94547,0 11.94547,0 0,0 0,2.275329 0,2.275329 0,0 -14.36299,0 -14.36299,0 z m -46.075364,2.346431 c -0.556018,0.04977 -1.663831,0.05262 -2.047793,0.455065 -0.234646,0.246021 -0.220419,0.580206 -0.227526,0.89591 0,0 0,3.839613 0,3.839613 0.0016,0.529011 -0.08112,1.042384 0.447962,1.341019 0.410967,0.233223 1.158986,0.228955 1.645336,0.308592 0,0 4.934609,0 4.934609,0 0.541812,-0.02133 1.622603,-0.09243 2.052063,-0.38254 0.51764,-0.346986 0.446543,-0.858935 0.447953,-1.40928 0,0 0,-3.270781 0,-3.270781 -0.0035,-0.469287 0.03408,-0.976968 -0.345567,-1.322533 -0.460749,-0.419513 -1.21302,-0.355521 -1.78755,-0.455065 -1.194544,-0.112351 -3.922086,-0.142214 -5.119487,0 z"
       style="fill:url(#linearGradient2);stroke:#000000;stroke-opacity:0"
       inkscape:export-filename="..\..\..\..\dev\hexonite.net\public\img\logo\logo-512.svg"
       inkscape:export-xdpi="25.400055"
       inkscape:export-ydpi="25.400055" /></g></svg>
