<?xml version="1.0" encoding="UTF-8" standalone="no"?>
<!-- Created with Inkscape (http://www.inkscape.org/) -->

<svg
   width="1023.9999"
   height="350"
   viewBox="0 0 270.93331 92.604166"
   version="1.1"
   id="svg1"
   xml:space="preserve"
   inkscape:export-filename="logo-1024.png"
   inkscape:export-xdpi="96"
   inkscape:export-ydpi="96"
   xmlns:inkscape="http://www.inkscape.org/namespaces/inkscape"
   xmlns:sodipodi="http://sodipodi.sourceforge.net/DTD/sodipodi-0.dtd"
   xmlns:xlink="http://www.w3.org/1999/xlink"
   xmlns="http://www.w3.org/2000/svg"
   xmlns:svg="http://www.w3.org/2000/svg"><sodipodi:namedview
     id="namedview1"
     pagecolor="#505050"
     bordercolor="#eeeeee"
     borderopacity="1"
     inkscape:showpageshadow="0"
     inkscape:pageopacity="0"
     inkscape:pagecheckerboard="0"
     inkscape:deskcolor="#505050"
     inkscape:document-units="mm" /><defs
     id="defs1"><linearGradient
       id="linearGradient3"
       inkscape:collect="always"><stop
         style="stop-color:#86a7ff;stop-opacity:1;"
         offset="0"
         id="stop4" /><stop
         style="stop-color:#00a7ff;stop-opacity:1;"
         offset="0.32673267"
         id="stop3" /></linearGradient><linearGradient
       inkscape:collect="always"
       xlink:href="#linearGradient3"
       id="linearGradient4"
       x1="-23.443855"
       y1="25.579866"
       x2="57.209286"
       y2="25.579866"
       gradientUnits="userSpaceOnUse"
       gradientTransform="matrix(3.3592409,0,0,3.3592409,78.753558,-39.625198)" /></defs><g
     inkscape:label="Layer 1"
     inkscape:groupmode="layer"
     id="layer1"><path
       id="L2-path"
       fill="none"
       stroke="#000000"
       stroke-width="3.35924"
       d="m 78.410851,57.755588 c 0,0 -0.142197,1.350976 -0.213312,10.594482 C 71.297615,72.482628 47.978382,86.251186 39.94364,90.676691 29.647798,84.666991 8.3479131,72.098667 1.7181861,68.17942 1.6186461,53.702667 1.7410261,35.622366 1.7608461,23.910134 16.337143,15.519872 26.832081,9.6779782 40.014743,1.9390292 53.311172,9.4760402 71.226511,19.820238 78.339744,23.910134 c -0.0028,5.935752 0.07112,10.80779 0.07112,10.80779 0,0 22.417636,0.02553 27.949526,0.07679 4.05292,2.912419 6.55577,4.991496 11.81746,8.688899 6.64395,-4.707079 11.99665,-8.714496 11.99665,-8.714496 5.73951,-0.07679 5.63996,-0.05119 7.96364,-0.05119 0,0 -15.99838,11.661041 -15.99838,11.661041 0,0 15.71396,11.376623 15.71396,11.376623 -1.93971,0 -1.6553,-0.0512 -7.88684,-0.07679 0,0 -7.13599,-5.443714 -11.68664,-8.714492 -5.58307,4.03301 -11.78902,8.765687 -11.78902,8.765687 -5.94713,0.0512 -5.64565,0.0084 -7.824274,0.0084 4.354404,-3.199674 7.901064,-5.884557 15.864704,-11.430664 0,0 -16.237291,-11.487546 -16.237291,-11.487546 0,0 0.02553,4.44826 0.02553,4.44826 0,0 -19.909092,0 -19.909092,0 0,0 0,2.559742 0,2.559742 0,0 15.358443,0 15.358443,0 0,0 0,4.550649 0,4.550649 0,0 -15.358443,0 -15.358443,0 0,0 0,6.825974 0,6.825974 0,0 19.909092,0 19.909092,0 0,0 0,4.55065 0,4.55065 z M 24.656306,27.89195 c 0,0 -7.394805,0 -7.394805,0 0,0 0,36.689612 0,36.689612 0,0 7.394805,0 7.394805,0 0,0 0,-18.202597 0,-18.202597 0,0 30.716884,0 30.716884,0 0,0 0,18.202597 0,18.202597 0,0 7.394805,0 7.394805,0 0,0 0,-36.689612 0,-36.689612 0,0 -7.394805,0 -7.394805,0 0,0 0,11.376624 0,11.376624 0,0 -30.716884,0 -30.716884,0 z M 170.60132,57.755588 c 0,0 -0.0626,-21.390897 0,-21.894313 1.02106,-3.290688 4.87489,-0.170649 6.21733,0.904442 0,0 17.63377,13.87948 17.63377,13.87948 0,0 0,-15.927273 0,-15.927273 0,0 4.83506,0 4.83506,0 0,0 0,19.055845 0,19.055845 -0.003,2.164403 -0.33845,5.190585 -3.41298,4.027327 -1.2685,-0.480664 -20.76234,-15.972781 -20.76234,-15.972781 0,0 0,15.927273 0,15.927273 z M 146.28379,34.794716 c 0,0 13.59791,-0.05119 13.59791,-0.05119 3.72585,0.466444 4.71846,0.773613 7.39481,3.620613 0.15644,2.79296 0.054,13.910764 0.054,13.910764 -0.0654,4.562028 -5.06544,5.475002 -8.71449,5.480689 -3.84815,0.0057 -7.4716,-0.0512 -12.53989,-0.102389 -3.77419,-0.674066 -6.61835,-1.604105 -7.08479,-5.224715 0,0 -0.0512,-11.945454 0.31003,-14.220779 1.49887,-2.118895 4.29183,-3.048934 6.9824,-3.412989 z m 56.13226,-0.07679 c 0,0 4.83507,0 4.83507,0 0,0 0,23.037664 0,23.037664 0,0 -4.83507,0 -4.83507,0 z m 7.96364,0 c 0,0 28.72598,0 28.72598,0 0,0 0,4.55065 0,4.55065 0,0 -11.94546,0 -11.94546,0 0,0 0,18.487014 0,18.487014 0,0 -4.83506,0 -4.83506,0 0,0 0,-18.487014 0,-18.487014 0,0 -11.94546,0 -11.94546,0 z m 30.14805,0 c 0,0 28.72598,0 28.72598,0 0,0 0,4.55065 0,4.55065 0,0 -23.89091,0 -23.89091,0 0,0 0,2.559741 0,2.559741 0,0 19.34026,0 19.34026,0 0,0 0,4.55065 0,4.55065 0,0 -19.34026,0 -19.34026,0 0,0 0,6.825974 0,6.825974 0,0 23.89091,0 23.89091,0 0,0 0,4.550649 0,4.550649 0,0 -28.72598,0 -28.72598,0 z m -92.15065,4.69286 c -1.11206,0.09953 -3.32766,0.105245 -4.09558,0.910129 -0.46929,0.492038 -0.44085,1.160416 -0.45507,1.791819 0,0 0,7.679221 0,7.679221 0.003,1.058024 -0.16212,2.084765 0.89591,2.682039 0.82196,0.46644 2.31799,0.457908 3.29069,0.617179 0,0 9.86922,0 9.86922,0 1.08363,-0.04266 3.24518,-0.184859 4.10412,-0.765077 1.03527,-0.693972 0.89306,-1.717869 0.89591,-2.818557 0,0 0,-6.541558 0,-6.541558 -0.006,-0.938572 0.0683,-1.953936 -0.69113,-2.645066 -0.92151,-0.839028 -2.42607,-0.711041 -3.57511,-0.910129 -2.38909,-0.2247 -7.84418,-0.284427 -10.23896,0 z"
       style="fill:url(#linearGradient4);stroke:#000000;stroke-opacity:0" /></g></svg>
